# Cylinder Resample 0.2 Maya 2024 example
# Units: centimeters. Axis: Y up. UV set: map1.

o Source24
g Source24
v -2.22 0 0
v -2.246577855 0 0.2018788552
v -2.324500185 0 0.39
v -2.448456711 0 0.5515432893
v -2.61 0 0.675499815
v -2.798121145 0 0.7534221445
v -3 0 0.78
v -3.201878855 0 0.7534221445
v -3.39 0 0.675499815
v -3.551543289 0 0.5515432893
v -3.675499815 0 0.39
v -3.753422145 0 0.2018788552
v -3.78 0 9.552245033e-17
v -3.753422145 0 -0.2018788552
v -3.675499815 0 -0.39
v -3.551543289 0 -0.5515432893
v -3.39 0 -0.675499815
v -3.201878855 0 -0.7534221445
v -3 0 -0.78
v -2.798121145 0 -0.7534221445
v -2.61 0 -0.675499815
v -2.448456711 0 -0.5515432893
v -2.324500185 0 -0.39
v -2.246577855 0 -0.2018788552
v -2.1 0.12 0
v -2.130666756 0.12 0.2329371406
v -2.220577137 0.12 0.45
v -2.363603897 0.12 0.6363961031
v -2.55 0.12 0.7794228634
v -2.767062859 0.12 0.8693332437
v -3 0.12 0.9
v -3.232937141 0.12 0.8693332437
v -3.45 0.12 0.7794228634
v -3.636396103 0.12 0.6363961031
v -3.779422863 0.12 0.45
v -3.869333244 0.12 0.2329371406
v -3.9 0.12 1.102182119e-16
v -3.869333244 0.12 -0.2329371406
v -3.779422863 0.12 -0.45
v -3.636396103 0.12 -0.6363961031
v -3.45 0.12 -0.7794228634
v -3.232937141 0.12 -0.8693332437
v -3 0.12 -0.9
v -2.767062859 0.12 -0.8693332437
v -2.55 0.12 -0.7794228634
v -2.363603897 0.12 -0.6363961031
v -2.220577137 0.12 -0.45
v -2.130666756 0.12 -0.2329371406
v -2.1 0.28 0
v -2.130666756 0.28 0.2329371406
v -2.220577137 0.28 0.45
v -2.363603897 0.28 0.6363961031
v -2.55 0.28 0.7794228634
v -2.767062859 0.28 0.8693332437
v -3 0.28 0.9
v -3.232937141 0.28 0.8693332437
v -3.45 0.28 0.7794228634
v -3.636396103 0.28 0.6363961031
v -3.779422863 0.28 0.45
v -3.869333244 0.28 0.2329371406
v -3.9 0.28 1.102182119e-16
v -3.869333244 0.28 -0.2329371406
v -3.779422863 0.28 -0.45
v -3.636396103 0.28 -0.6363961031
v -3.45 0.28 -0.7794228634
v -3.232937141 0.28 -0.8693332437
v -3 0.28 -0.9
v -2.767062859 0.28 -0.8693332437
v -2.55 0.28 -0.7794228634
v -2.363603897 0.28 -0.6363961031
v -2.220577137 0.28 -0.45
v -2.130666756 0.28 -0.2329371406
v -2.1 0.72 0
v -2.130666756 0.72 0.2329371406
v -2.220577137 0.72 0.45
v -2.363603897 0.72 0.6363961031
v -2.55 0.72 0.7794228634
v -2.767062859 0.72 0.8693332437
v -3 0.72 0.9
v -3.232937141 0.72 0.8693332437
v -3.45 0.72 0.7794228634
v -3.636396103 0.72 0.6363961031
v -3.779422863 0.72 0.45
v -3.869333244 0.72 0.2329371406
v -3.9 0.72 1.102182119e-16
v -3.869333244 0.72 -0.2329371406
v -3.779422863 0.72 -0.45
v -3.636396103 0.72 -0.6363961031
v -3.45 0.72 -0.7794228634
v -3.232937141 0.72 -0.8693332437
v -3 0.72 -0.9
v -2.767062859 0.72 -0.8693332437
v -2.55 0.72 -0.7794228634
v -2.363603897 0.72 -0.6363961031
v -2.220577137 0.72 -0.45
v -2.130666756 0.72 -0.2329371406
v -2.22 0.76 0
v -2.246577855 0.76 0.2018788552
v -2.324500185 0.76 0.39
v -2.448456711 0.76 0.5515432893
v -2.61 0.76 0.675499815
v -2.798121145 0.76 0.7534221445
v -3 0.76 0.78
v -3.201878855 0.76 0.7534221445
v -3.39 0.76 0.675499815
v -3.551543289 0.76 0.5515432893
v -3.675499815 0.76 0.39
v -3.753422145 0.76 0.2018788552
v -3.78 0.76 9.552245033e-17
v -3.753422145 0.76 -0.2018788552
v -3.675499815 0.76 -0.39
v -3.551543289 0.76 -0.5515432893
v -3.39 0.76 -0.675499815
v -3.201878855 0.76 -0.7534221445
v -3 0.76 -0.78
v -2.798121145 0.76 -0.7534221445
v -2.61 0.76 -0.675499815
v -2.448456711 0.76 -0.5515432893
v -2.324500185 0.76 -0.39
v -2.246577855 0.76 -0.2018788552
v -2.22 0.84 0
v -2.246577855 0.84 0.2018788552
v -2.324500185 0.84 0.39
v -2.448456711 0.84 0.5515432893
v -2.61 0.84 0.675499815
v -2.798121145 0.84 0.7534221445
v -3 0.84 0.78
v -3.201878855 0.84 0.7534221445
v -3.39 0.84 0.675499815
v -3.551543289 0.84 0.5515432893
v -3.675499815 0.84 0.39
v -3.753422145 0.84 0.2018788552
v -3.78 0.84 9.552245033e-17
v -3.753422145 0.84 -0.2018788552
v -3.675499815 0.84 -0.39
v -3.551543289 0.84 -0.5515432893
v -3.39 0.84 -0.675499815
v -3.201878855 0.84 -0.7534221445
v -3 0.84 -0.78
v -2.798121145 0.84 -0.7534221445
v -2.61 0.84 -0.675499815
v -2.448456711 0.84 -0.5515432893
v -2.324500185 0.84 -0.39
v -2.246577855 0.84 -0.2018788552
v -2.1 0.88 0
v -2.130666756 0.88 0.2329371406
v -2.220577137 0.88 0.45
v -2.363603897 0.88 0.6363961031
v -2.55 0.88 0.7794228634
v -2.767062859 0.88 0.8693332437
v -3 0.88 0.9
v -3.232937141 0.88 0.8693332437
v -3.45 0.88 0.7794228634
v -3.636396103 0.88 0.6363961031
v -3.779422863 0.88 0.45
v -3.869333244 0.88 0.2329371406
v -3.9 0.88 1.102182119e-16
v -3.869333244 0.88 -0.2329371406
v -3.779422863 0.88 -0.45
v -3.636396103 0.88 -0.6363961031
v -3.45 0.88 -0.7794228634
v -3.232937141 0.88 -0.8693332437
v -3 0.88 -0.9
v -2.767062859 0.88 -0.8693332437
v -2.55 0.88 -0.7794228634
v -2.363603897 0.88 -0.6363961031
v -2.220577137 0.88 -0.45
v -2.130666756 0.88 -0.2329371406
v -2.1 1.3 0
v -2.130666756 1.3 0.2329371406
v -2.220577137 1.3 0.45
v -2.363603897 1.3 0.6363961031
v -2.55 1.3 0.7794228634
v -2.767062859 1.3 0.8693332437
v -3 1.3 0.9
v -3.232937141 1.3 0.8693332437
v -3.45 1.3 0.7794228634
v -3.636396103 1.3 0.6363961031
v -3.779422863 1.3 0.45
v -3.869333244 1.3 0.2329371406
v -3.9 1.3 1.102182119e-16
v -3.869333244 1.3 -0.2329371406
v -3.779422863 1.3 -0.45
v -3.636396103 1.3 -0.6363961031
v -3.45 1.3 -0.7794228634
v -3.232937141 1.3 -0.8693332437
v -3 1.3 -0.9
v -2.767062859 1.3 -0.8693332437
v -2.55 1.3 -0.7794228634
v -2.363603897 1.3 -0.6363961031
v -2.220577137 1.3 -0.45
v -2.130666756 1.3 -0.2329371406
v -2.28 1.3 0
v -2.304533405 1.3 0.1863497125
v -2.376461709 1.3 0.36
v -2.490883118 1.3 0.5091168825
v -2.64 1.3 0.6235382907
v -2.813650288 1.3 0.6954665949
v -3 1.3 0.72
v -3.186349712 1.3 0.6954665949
v -3.36 1.3 0.6235382907
v -3.509116882 1.3 0.5091168825
v -3.623538291 1.3 0.36
v -3.695466595 1.3 0.1863497125
v -3.72 1.3 8.817456954e-17
v -3.695466595 1.3 -0.1863497125
v -3.623538291 1.3 -0.36
v -3.509116882 1.3 -0.5091168825
v -3.36 1.3 -0.6235382907
v -3.186349712 1.3 -0.6954665949
v -3 1.3 -0.72
v -2.813650288 1.3 -0.6954665949
v -2.64 1.3 -0.6235382907
v -2.490883118 1.3 -0.5091168825
v -2.376461709 1.3 -0.36
v -2.304533405 1.3 -0.1863497125
v -2.28 1.65 0
v -2.304533405 1.65 0.1863497125
v -2.376461709 1.65 0.36
v -2.490883118 1.65 0.5091168825
v -2.64 1.65 0.6235382907
v -2.813650288 1.65 0.6954665949
v -3 1.65 0.72
v -3.186349712 1.65 0.6954665949
v -3.36 1.65 0.6235382907
v -3.509116882 1.65 0.5091168825
v -3.623538291 1.65 0.36
v -3.695466595 1.65 0.1863497125
v -3.72 1.65 8.817456954e-17
v -3.695466595 1.65 -0.1863497125
v -3.623538291 1.65 -0.36
v -3.509116882 1.65 -0.5091168825
v -3.36 1.65 -0.6235382907
v -3.186349712 1.65 -0.6954665949
v -3 1.65 -0.72
v -2.813650288 1.65 -0.6954665949
v -2.64 1.65 -0.6235382907
v -2.490883118 1.65 -0.5091168825
v -2.376461709 1.65 -0.36
v -2.304533405 1.65 -0.1863497125
v -2.16 1.65 0
v -2.188622306 1.65 0.2174079979
v -2.272538661 1.65 0.42
v -2.406030304 1.65 0.5939696962
v -2.58 1.65 0.7274613392
v -2.782592002 1.65 0.8113776941
v -3 1.65 0.84
v -3.217407998 1.65 0.8113776941
v -3.42 1.65 0.7274613392
v -3.593969696 1.65 0.5939696962
v -3.727461339 1.65 0.42
v -3.811377694 1.65 0.2174079979
v -3.84 1.65 1.028703311e-16
v -3.811377694 1.65 -0.2174079979
v -3.727461339 1.65 -0.42
v -3.593969696 1.65 -0.5939696962
v -3.42 1.65 -0.7274613392
v -3.217407998 1.65 -0.8113776941
v -3 1.65 -0.84
v -2.782592002 1.65 -0.8113776941
v -2.58 1.65 -0.7274613392
v -2.406030304 1.65 -0.5939696962
v -2.272538661 1.65 -0.42
v -2.188622306 1.65 -0.2174079979
v -2.16 1.98 0
v -2.188622306 1.98 0.2174079979
v -2.272538661 1.98 0.42
v -2.406030304 1.98 0.5939696962
v -2.58 1.98 0.7274613392
v -2.782592002 1.98 0.8113776941
v -3 1.98 0.84
v -3.217407998 1.98 0.8113776941
v -3.42 1.98 0.7274613392
v -3.593969696 1.98 0.5939696962
v -3.727461339 1.98 0.42
v -3.811377694 1.98 0.2174079979
v -3.84 1.98 1.028703311e-16
v -3.811377694 1.98 -0.2174079979
v -3.727461339 1.98 -0.42
v -3.593969696 1.98 -0.5939696962
v -3.42 1.98 -0.7274613392
v -3.217407998 1.98 -0.8113776941
v -3 1.98 -0.84
v -2.782592002 1.98 -0.8113776941
v -2.58 1.98 -0.7274613392
v -2.406030304 1.98 -0.5939696962
v -2.272538661 1.98 -0.42
v -2.188622306 1.98 -0.2174079979
v -2.24 2.08 0
v -2.265896372 2.08 0.1967024743
v -2.341820693 2.08 0.38
v -2.462598846 2.08 0.5374011537
v -2.62 2.08 0.6581793069
v -2.803297526 2.08 0.734103628
v -3 2.08 0.76
v -3.196702474 2.08 0.734103628
v -3.38 2.08 0.6581793069
v -3.537401154 2.08 0.5374011537
v -3.658179307 2.08 0.38
v -3.734103628 2.08 0.1967024743
v -3.76 2.08 9.307315674e-17
v -3.734103628 2.08 -0.1967024743
v -3.658179307 2.08 -0.38
v -3.537401154 2.08 -0.5374011537
v -3.38 2.08 -0.6581793069
v -3.196702474 2.08 -0.734103628
v -3 2.08 -0.76
v -2.803297526 2.08 -0.734103628
v -2.62 2.08 -0.6581793069
v -2.462598846 2.08 -0.5374011537
v -2.341820693 2.08 -0.38
v -2.265896372 2.08 -0.1967024743
vt 0.02 0.02
vt 0.045 0.02
vt 0.07 0.02
vt 0.095 0.02
vt 0.12 0.02
vt 0.145 0.02
vt 0.17 0.02
vt 0.195 0.02
vt 0.22 0.02
vt 0.245 0.02
vt 0.27 0.02
vt 0.295 0.02
vt 0.32 0.02
vt 0.345 0.02
vt 0.37 0.02
vt 0.395 0.02
vt 0.42 0.02
vt 0.445 0.02
vt 0.47 0.02
vt 0.495 0.02
vt 0.52 0.02
vt 0.545 0.02
vt 0.57 0.02
vt 0.595 0.02
vt 0.62 0.02
vt 0.02 0.08128302811
vt 0.045 0.08128302811
vt 0.07 0.08128302811
vt 0.095 0.08128302811
vt 0.12 0.08128302811
vt 0.145 0.08128302811
vt 0.17 0.08128302811
vt 0.195 0.08128302811
vt 0.22 0.08128302811
vt 0.245 0.08128302811
vt 0.27 0.08128302811
vt 0.295 0.08128302811
vt 0.32 0.08128302811
vt 0.345 0.08128302811
vt 0.37 0.08128302811
vt 0.395 0.08128302811
vt 0.42 0.08128302811
vt 0.445 0.08128302811
vt 0.47 0.08128302811
vt 0.495 0.08128302811
vt 0.52 0.08128302811
vt 0.545 0.08128302811
vt 0.57 0.08128302811
vt 0.595 0.08128302811
vt 0.62 0.08128302811
vt 0.02 0.1390612211
vt 0.045 0.1390612211
vt 0.07 0.1390612211
vt 0.095 0.1390612211
vt 0.12 0.1390612211
vt 0.145 0.1390612211
vt 0.17 0.1390612211
vt 0.195 0.1390612211
vt 0.22 0.1390612211
vt 0.245 0.1390612211
vt 0.27 0.1390612211
vt 0.295 0.1390612211
vt 0.32 0.1390612211
vt 0.345 0.1390612211
vt 0.37 0.1390612211
vt 0.395 0.1390612211
vt 0.42 0.1390612211
vt 0.445 0.1390612211
vt 0.47 0.1390612211
vt 0.495 0.1390612211
vt 0.52 0.1390612211
vt 0.545 0.1390612211
vt 0.57 0.1390612211
vt 0.595 0.1390612211
vt 0.62 0.1390612211
vt 0.02 0.2979512518
vt 0.045 0.2979512518
vt 0.07 0.2979512518
vt 0.095 0.2979512518
vt 0.12 0.2979512518
vt 0.145 0.2979512518
vt 0.17 0.2979512518
vt 0.195 0.2979512518
vt 0.22 0.2979512518
vt 0.245 0.2979512518
vt 0.27 0.2979512518
vt 0.295 0.2979512518
vt 0.32 0.2979512518
vt 0.345 0.2979512518
vt 0.37 0.2979512518
vt 0.395 0.2979512518
vt 0.42 0.2979512518
vt 0.445 0.2979512518
vt 0.47 0.2979512518
vt 0.495 0.2979512518
vt 0.52 0.2979512518
vt 0.545 0.2979512518
vt 0.57 0.2979512518
vt 0.595 0.2979512518
vt 0.62 0.2979512518
vt 0.02 0.3436289241
vt 0.045 0.3436289241
vt 0.07 0.3436289241
vt 0.095 0.3436289241
vt 0.12 0.3436289241
vt 0.145 0.3436289241
vt 0.17 0.3436289241
vt 0.195 0.3436289241
vt 0.22 0.3436289241
vt 0.245 0.3436289241
vt 0.27 0.3436289241
vt 0.295 0.3436289241
vt 0.32 0.3436289241
vt 0.345 0.3436289241
vt 0.37 0.3436289241
vt 0.395 0.3436289241
vt 0.42 0.3436289241
vt 0.445 0.3436289241
vt 0.47 0.3436289241
vt 0.495 0.3436289241
vt 0.52 0.3436289241
vt 0.545 0.3436289241
vt 0.57 0.3436289241
vt 0.595 0.3436289241
vt 0.62 0.3436289241
vt 0.02 0.3725180206
vt 0.045 0.3725180206
vt 0.07 0.3725180206
vt 0.095 0.3725180206
vt 0.12 0.3725180206
vt 0.145 0.3725180206
vt 0.17 0.3725180206
vt 0.195 0.3725180206
vt 0.22 0.3725180206
vt 0.245 0.3725180206
vt 0.27 0.3725180206
vt 0.295 0.3725180206
vt 0.32 0.3725180206
vt 0.345 0.3725180206
vt 0.37 0.3725180206
vt 0.395 0.3725180206
vt 0.42 0.3725180206
vt 0.445 0.3725180206
vt 0.47 0.3725180206
vt 0.495 0.3725180206
vt 0.52 0.3725180206
vt 0.545 0.3725180206
vt 0.57 0.3725180206
vt 0.595 0.3725180206
vt 0.62 0.3725180206
vt 0.02 0.4181956928
vt 0.045 0.4181956928
vt 0.07 0.4181956928
vt 0.095 0.4181956928
vt 0.12 0.4181956928
vt 0.145 0.4181956928
vt 0.17 0.4181956928
vt 0.195 0.4181956928
vt 0.22 0.4181956928
vt 0.245 0.4181956928
vt 0.27 0.4181956928
vt 0.295 0.4181956928
vt 0.32 0.4181956928
vt 0.345 0.4181956928
vt 0.37 0.4181956928
vt 0.395 0.4181956928
vt 0.42 0.4181956928
vt 0.445 0.4181956928
vt 0.47 0.4181956928
vt 0.495 0.4181956928
vt 0.52 0.4181956928
vt 0.545 0.4181956928
vt 0.57 0.4181956928
vt 0.595 0.4181956928
vt 0.62 0.4181956928
vt 0.02 0.5698634494
vt 0.045 0.5698634494
vt 0.07 0.5698634494
vt 0.095 0.5698634494
vt 0.12 0.5698634494
vt 0.145 0.5698634494
vt 0.17 0.5698634494
vt 0.195 0.5698634494
vt 0.22 0.5698634494
vt 0.245 0.5698634494
vt 0.27 0.5698634494
vt 0.295 0.5698634494
vt 0.32 0.5698634494
vt 0.345 0.5698634494
vt 0.37 0.5698634494
vt 0.395 0.5698634494
vt 0.42 0.5698634494
vt 0.445 0.5698634494
vt 0.47 0.5698634494
vt 0.495 0.5698634494
vt 0.52 0.5698634494
vt 0.545 0.5698634494
vt 0.57 0.5698634494
vt 0.595 0.5698634494
vt 0.62 0.5698634494
vt 0.02 0.6348639165
vt 0.045 0.6348639165
vt 0.07 0.6348639165
vt 0.095 0.6348639165
vt 0.12 0.6348639165
vt 0.145 0.6348639165
vt 0.17 0.6348639165
vt 0.195 0.6348639165
vt 0.22 0.6348639165
vt 0.245 0.6348639165
vt 0.27 0.6348639165
vt 0.295 0.6348639165
vt 0.32 0.6348639165
vt 0.345 0.6348639165
vt 0.37 0.6348639165
vt 0.395 0.6348639165
vt 0.42 0.6348639165
vt 0.445 0.6348639165
vt 0.47 0.6348639165
vt 0.495 0.6348639165
vt 0.52 0.6348639165
vt 0.545 0.6348639165
vt 0.57 0.6348639165
vt 0.595 0.6348639165
vt 0.62 0.6348639165
vt 0.02 0.7612537137
vt 0.045 0.7612537137
vt 0.07 0.7612537137
vt 0.095 0.7612537137
vt 0.12 0.7612537137
vt 0.145 0.7612537137
vt 0.17 0.7612537137
vt 0.195 0.7612537137
vt 0.22 0.7612537137
vt 0.245 0.7612537137
vt 0.27 0.7612537137
vt 0.295 0.7612537137
vt 0.32 0.7612537137
vt 0.345 0.7612537137
vt 0.37 0.7612537137
vt 0.395 0.7612537137
vt 0.42 0.7612537137
vt 0.445 0.7612537137
vt 0.47 0.7612537137
vt 0.495 0.7612537137
vt 0.52 0.7612537137
vt 0.545 0.7612537137
vt 0.57 0.7612537137
vt 0.595 0.7612537137
vt 0.62 0.7612537137
vt 0.02 0.8045873585
vt 0.045 0.8045873585
vt 0.07 0.8045873585
vt 0.095 0.8045873585
vt 0.12 0.8045873585
vt 0.145 0.8045873585
vt 0.17 0.8045873585
vt 0.195 0.8045873585
vt 0.22 0.8045873585
vt 0.245 0.8045873585
vt 0.27 0.8045873585
vt 0.295 0.8045873585
vt 0.32 0.8045873585
vt 0.345 0.8045873585
vt 0.37 0.8045873585
vt 0.395 0.8045873585
vt 0.42 0.8045873585
vt 0.445 0.8045873585
vt 0.47 0.8045873585
vt 0.495 0.8045873585
vt 0.52 0.8045873585
vt 0.545 0.8045873585
vt 0.57 0.8045873585
vt 0.595 0.8045873585
vt 0.62 0.8045873585
vt 0.02 0.9237548815
vt 0.045 0.9237548815
vt 0.07 0.9237548815
vt 0.095 0.9237548815
vt 0.12 0.9237548815
vt 0.145 0.9237548815
vt 0.17 0.9237548815
vt 0.195 0.9237548815
vt 0.22 0.9237548815
vt 0.245 0.9237548815
vt 0.27 0.9237548815
vt 0.295 0.9237548815
vt 0.32 0.9237548815
vt 0.345 0.9237548815
vt 0.37 0.9237548815
vt 0.395 0.9237548815
vt 0.42 0.9237548815
vt 0.445 0.9237548815
vt 0.47 0.9237548815
vt 0.495 0.9237548815
vt 0.52 0.9237548815
vt 0.545 0.9237548815
vt 0.57 0.9237548815
vt 0.595 0.9237548815
vt 0.62 0.9237548815
vt 0.02 0.97
vt 0.045 0.97
vt 0.07 0.97
vt 0.095 0.97
vt 0.12 0.97
vt 0.145 0.97
vt 0.17 0.97
vt 0.195 0.97
vt 0.22 0.97
vt 0.245 0.97
vt 0.27 0.97
vt 0.295 0.97
vt 0.32 0.97
vt 0.345 0.97
vt 0.37 0.97
vt 0.395 0.97
vt 0.42 0.97
vt 0.445 0.97
vt 0.47 0.97
vt 0.495 0.97
vt 0.52 0.97
vt 0.545 0.97
vt 0.57 0.97
vt 0.595 0.97
vt 0.62 0.97
vt 0.96 0.25
vt 0.9548888739 0.2888228568
vt 0.9399038106 0.325
vt 0.9160660172 0.3560660172
vt 0.885 0.3799038106
vt 0.8488228568 0.3948888739
vt 0.81 0.4
vt 0.7711771432 0.3948888739
vt 0.735 0.3799038106
vt 0.7039339828 0.3560660172
vt 0.6800961894 0.325
vt 0.6651111261 0.2888228568
vt 0.66 0.25
vt 0.6651111261 0.2111771432
vt 0.6800961894 0.175
vt 0.7039339828 0.1439339828
vt 0.735 0.1200961894
vt 0.7711771432 0.1051111261
vt 0.81 0.1
vt 0.8488228568 0.1051111261
vt 0.885 0.1200961894
vt 0.9160660172 0.1439339828
vt 0.9399038106 0.175
vt 0.9548888739 0.2111771432
vt 0.96 0.73
vt 0.9548888739 0.7688228568
vt 0.9399038106 0.805
vt 0.9160660172 0.8360660172
vt 0.885 0.8599038106
vt 0.8488228568 0.8748888739
vt 0.81 0.88
vt 0.7711771432 0.8748888739
vt 0.735 0.8599038106
vt 0.7039339828 0.8360660172
vt 0.6800961894 0.805
vt 0.6651111261 0.7688228568
vt 0.66 0.73
vt 0.6651111261 0.6911771432
vt 0.6800961894 0.655
vt 0.7039339828 0.6239339828
vt 0.735 0.6000961894
vt 0.7711771432 0.5851111261
vt 0.81 0.58
vt 0.8488228568 0.5851111261
vt 0.885 0.6000961894
vt 0.9160660172 0.6239339828
vt 0.9399038106 0.655
vt 0.9548888739 0.6911771432
s 1
f 1/1 25/26 26/27 2/2
f 2/2 26/27 27/28 3/3
f 3/3 27/28 28/29 4/4
f 4/4 28/29 29/30 5/5
f 5/5 29/30 30/31 6/6
f 6/6 30/31 31/32 7/7
f 7/7 31/32 32/33 8/8
f 8/8 32/33 33/34 9/9
f 9/9 33/34 34/35 10/10
f 10/10 34/35 35/36 11/11
f 11/11 35/36 36/37 12/12
f 12/12 36/37 37/38 13/13
f 13/13 37/38 38/39 14/14
f 14/14 38/39 39/40 15/15
f 15/15 39/40 40/41 16/16
f 16/16 40/41 41/42 17/17
f 17/17 41/42 42/43 18/18
f 18/18 42/43 43/44 19/19
f 19/19 43/44 44/45 20/20
f 20/20 44/45 45/46 21/21
f 21/21 45/46 46/47 22/22
f 22/22 46/47 47/48 23/23
f 23/23 47/48 48/49 24/24
f 24/24 48/49 25/50 1/25
f 25/26 49/51 50/52 26/27
f 26/27 50/52 51/53 27/28
f 27/28 51/53 52/54 28/29
f 28/29 52/54 53/55 29/30
f 29/30 53/55 54/56 30/31
f 30/31 54/56 55/57 31/32
f 31/32 55/57 56/58 32/33
f 32/33 56/58 57/59 33/34
f 33/34 57/59 58/60 34/35
f 34/35 58/60 59/61 35/36
f 35/36 59/61 60/62 36/37
f 36/37 60/62 61/63 37/38
f 37/38 61/63 62/64 38/39
f 38/39 62/64 63/65 39/40
f 39/40 63/65 64/66 40/41
f 40/41 64/66 65/67 41/42
f 41/42 65/67 66/68 42/43
f 42/43 66/68 67/69 43/44
f 43/44 67/69 68/70 44/45
f 44/45 68/70 69/71 45/46
f 45/46 69/71 70/72 46/47
f 46/47 70/72 71/73 47/48
f 47/48 71/73 72/74 48/49
f 48/49 72/74 49/75 25/50
f 49/51 73/76 74/77 50/52
f 50/52 74/77 75/78 51/53
f 51/53 75/78 76/79 52/54
f 52/54 76/79 77/80 53/55
f 53/55 77/80 78/81 54/56
f 54/56 78/81 79/82 55/57
f 55/57 79/82 80/83 56/58
f 56/58 80/83 81/84 57/59
f 57/59 81/84 82/85 58/60
f 58/60 82/85 83/86 59/61
f 59/61 83/86 84/87 60/62
f 60/62 84/87 85/88 61/63
f 61/63 85/88 86/89 62/64
f 62/64 86/89 87/90 63/65
f 63/65 87/90 88/91 64/66
f 64/66 88/91 89/92 65/67
f 65/67 89/92 90/93 66/68
f 66/68 90/93 91/94 67/69
f 67/69 91/94 92/95 68/70
f 68/70 92/95 93/96 69/71
f 69/71 93/96 94/97 70/72
f 70/72 94/97 95/98 71/73
f 71/73 95/98 96/99 72/74
f 72/74 96/99 73/100 49/75
f 73/76 97/101 98/102 74/77
f 74/77 98/102 99/103 75/78
f 75/78 99/103 100/104 76/79
f 76/79 100/104 101/105 77/80
f 77/80 101/105 102/106 78/81
f 78/81 102/106 103/107 79/82
f 79/82 103/107 104/108 80/83
f 80/83 104/108 105/109 81/84
f 81/84 105/109 106/110 82/85
f 82/85 106/110 107/111 83/86
f 83/86 107/111 108/112 84/87
f 84/87 108/112 109/113 85/88
f 85/88 109/113 110/114 86/89
f 86/89 110/114 111/115 87/90
f 87/90 111/115 112/116 88/91
f 88/91 112/116 113/117 89/92
f 89/92 113/117 114/118 90/93
f 90/93 114/118 115/119 91/94
f 91/94 115/119 116/120 92/95
f 92/95 116/120 117/121 93/96
f 93/96 117/121 118/122 94/97
f 94/97 118/122 119/123 95/98
f 95/98 119/123 120/124 96/99
f 96/99 120/124 97/125 73/100
f 97/101 121/126 122/127 98/102
f 98/102 122/127 123/128 99/103
f 99/103 123/128 124/129 100/104
f 100/104 124/129 125/130 101/105
f 101/105 125/130 126/131 102/106
f 102/106 126/131 127/132 103/107
f 103/107 127/132 128/133 104/108
f 104/108 128/133 129/134 105/109
f 105/109 129/134 130/135 106/110
f 106/110 130/135 131/136 107/111
f 107/111 131/136 132/137 108/112
f 108/112 132/137 133/138 109/113
f 109/113 133/138 134/139 110/114
f 110/114 134/139 135/140 111/115
f 111/115 135/140 136/141 112/116
f 112/116 136/141 137/142 113/117
f 113/117 137/142 138/143 114/118
f 114/118 138/143 139/144 115/119
f 115/119 139/144 140/145 116/120
f 116/120 140/145 141/146 117/121
f 117/121 141/146 142/147 118/122
f 118/122 142/147 143/148 119/123
f 119/123 143/148 144/149 120/124
f 120/124 144/149 121/150 97/125
f 121/126 145/151 146/152 122/127
f 122/127 146/152 147/153 123/128
f 123/128 147/153 148/154 124/129
f 124/129 148/154 149/155 125/130
f 125/130 149/155 150/156 126/131
f 126/131 150/156 151/157 127/132
f 127/132 151/157 152/158 128/133
f 128/133 152/158 153/159 129/134
f 129/134 153/159 154/160 130/135
f 130/135 154/160 155/161 131/136
f 131/136 155/161 156/162 132/137
f 132/137 156/162 157/163 133/138
f 133/138 157/163 158/164 134/139
f 134/139 158/164 159/165 135/140
f 135/140 159/165 160/166 136/141
f 136/141 160/166 161/167 137/142
f 137/142 161/167 162/168 138/143
f 138/143 162/168 163/169 139/144
f 139/144 163/169 164/170 140/145
f 140/145 164/170 165/171 141/146
f 141/146 165/171 166/172 142/147
f 142/147 166/172 167/173 143/148
f 143/148 167/173 168/174 144/149
f 144/149 168/174 145/175 121/150
f 145/151 169/176 170/177 146/152
f 146/152 170/177 171/178 147/153
f 147/153 171/178 172/179 148/154
f 148/154 172/179 173/180 149/155
f 149/155 173/180 174/181 150/156
f 150/156 174/181 175/182 151/157
f 151/157 175/182 176/183 152/158
f 152/158 176/183 177/184 153/159
f 153/159 177/184 178/185 154/160
f 154/160 178/185 179/186 155/161
f 155/161 179/186 180/187 156/162
f 156/162 180/187 181/188 157/163
f 157/163 181/188 182/189 158/164
f 158/164 182/189 183/190 159/165
f 159/165 183/190 184/191 160/166
f 160/166 184/191 185/192 161/167
f 161/167 185/192 186/193 162/168
f 162/168 186/193 187/194 163/169
f 163/169 187/194 188/195 164/170
f 164/170 188/195 189/196 165/171
f 165/171 189/196 190/197 166/172
f 166/172 190/197 191/198 167/173
f 167/173 191/198 192/199 168/174
f 168/174 192/199 169/200 145/175
f 169/176 193/201 194/202 170/177
f 170/177 194/202 195/203 171/178
f 171/178 195/203 196/204 172/179
f 172/179 196/204 197/205 173/180
f 173/180 197/205 198/206 174/181
f 174/181 198/206 199/207 175/182
f 175/182 199/207 200/208 176/183
f 176/183 200/208 201/209 177/184
f 177/184 201/209 202/210 178/185
f 178/185 202/210 203/211 179/186
f 179/186 203/211 204/212 180/187
f 180/187 204/212 205/213 181/188
f 181/188 205/213 206/214 182/189
f 182/189 206/214 207/215 183/190
f 183/190 207/215 208/216 184/191
f 184/191 208/216 209/217 185/192
f 185/192 209/217 210/218 186/193
f 186/193 210/218 211/219 187/194
f 187/194 211/219 212/220 188/195
f 188/195 212/220 213/221 189/196
f 189/196 213/221 214/222 190/197
f 190/197 214/222 215/223 191/198
f 191/198 215/223 216/224 192/199
f 192/199 216/224 193/225 169/200
f 193/201 217/226 218/227 194/202
f 194/202 218/227 219/228 195/203
f 195/203 219/228 220/229 196/204
f 196/204 220/229 221/230 197/205
f 197/205 221/230 222/231 198/206
f 198/206 222/231 223/232 199/207
f 199/207 223/232 224/233 200/208
f 200/208 224/233 225/234 201/209
f 201/209 225/234 226/235 202/210
f 202/210 226/235 227/236 203/211
f 203/211 227/236 228/237 204/212
f 204/212 228/237 229/238 205/213
f 205/213 229/238 230/239 206/214
f 206/214 230/239 231/240 207/215
f 207/215 231/240 232/241 208/216
f 208/216 232/241 233/242 209/217
f 209/217 233/242 234/243 210/218
f 210/218 234/243 235/244 211/219
f 211/219 235/244 236/245 212/220
f 212/220 236/245 237/246 213/221
f 213/221 237/246 238/247 214/222
f 214/222 238/247 239/248 215/223
f 215/223 239/248 240/249 216/224
f 216/224 240/249 217/250 193/225
f 217/226 241/251 242/252 218/227
f 218/227 242/252 243/253 219/228
f 219/228 243/253 244/254 220/229
f 220/229 244/254 245/255 221/230
f 221/230 245/255 246/256 222/231
f 222/231 246/256 247/257 223/232
f 223/232 247/257 248/258 224/233
f 224/233 248/258 249/259 225/234
f 225/234 249/259 250/260 226/235
f 226/235 250/260 251/261 227/236
f 227/236 251/261 252/262 228/237
f 228/237 252/262 253/263 229/238
f 229/238 253/263 254/264 230/239
f 230/239 254/264 255/265 231/240
f 231/240 255/265 256/266 232/241
f 232/241 256/266 257/267 233/242
f 233/242 257/267 258/268 234/243
f 234/243 258/268 259/269 235/244
f 235/244 259/269 260/270 236/245
f 236/245 260/270 261/271 237/246
f 237/246 261/271 262/272 238/247
f 238/247 262/272 263/273 239/248
f 239/248 263/273 264/274 240/249
f 240/249 264/274 241/275 217/250
f 241/251 265/276 266/277 242/252
f 242/252 266/277 267/278 243/253
f 243/253 267/278 268/279 244/254
f 244/254 268/279 269/280 245/255
f 245/255 269/280 270/281 246/256
f 246/256 270/281 271/282 247/257
f 247/257 271/282 272/283 248/258
f 248/258 272/283 273/284 249/259
f 249/259 273/284 274/285 250/260
f 250/260 274/285 275/286 251/261
f 251/261 275/286 276/287 252/262
f 252/262 276/287 277/288 253/263
f 253/263 277/288 278/289 254/264
f 254/264 278/289 279/290 255/265
f 255/265 279/290 280/291 256/266
f 256/266 280/291 281/292 257/267
f 257/267 281/292 282/293 258/268
f 258/268 282/293 283/294 259/269
f 259/269 283/294 284/295 260/270
f 260/270 284/295 285/296 261/271
f 261/271 285/296 286/297 262/272
f 262/272 286/297 287/298 263/273
f 263/273 287/298 288/299 264/274
f 264/274 288/299 265/300 241/275
f 265/276 289/301 290/302 266/277
f 266/277 290/302 291/303 267/278
f 267/278 291/303 292/304 268/279
f 268/279 292/304 293/305 269/280
f 269/280 293/305 294/306 270/281
f 270/281 294/306 295/307 271/282
f 271/282 295/307 296/308 272/283
f 272/283 296/308 297/309 273/284
f 273/284 297/309 298/310 274/285
f 274/285 298/310 299/311 275/286
f 275/286 299/311 300/312 276/287
f 276/287 300/312 301/313 277/288
f 277/288 301/313 302/314 278/289
f 278/289 302/314 303/315 279/290
f 279/290 303/315 304/316 280/291
f 280/291 304/316 305/317 281/292
f 281/292 305/317 306/318 282/293
f 282/293 306/318 307/319 283/294
f 283/294 307/319 308/320 284/295
f 284/295 308/320 309/321 285/296
f 285/296 309/321 310/322 286/297
f 286/297 310/322 311/323 287/298
f 287/298 311/323 312/324 288/299
f 288/299 312/324 289/325 265/300
s off
f 1/326 2/327 3/328 4/329 5/330 6/331 7/332 8/333 9/334 10/335 11/336 12/337 13/338 14/339 15/340 16/341 17/342 18/343 19/344 20/345 21/346 22/347 23/348 24/349
s off
f 312/373 311/372 310/371 309/370 308/369 307/368 306/367 305/366 304/365 303/364 302/363 301/362 300/361 299/360 298/359 297/358 296/357 295/356 294/355 293/354 292/353 291/352 290/351 289/350

o Result16
g Result16
v 0.76 2.08 3.851859889e-34
v 0.7021484447 2.08 0.2908394086
v 0.5374011537 2.08 0.5374011537
v 0.2908394086 2.08 0.7021484447
v 2.419334e-17 2.08 0.76
v -0.2908394086 2.08 0.7021484447
v -0.5374011537 2.08 0.5374011537
v -0.7021484447 2.08 0.2908394086
v -0.76 2.08 1.266419385e-16
v -0.7021484447 2.08 -0.2908394086
v -0.5374011537 2.08 -0.5374011537
v -0.2908394086 2.08 -0.7021484447
v -1.500036915e-16 2.08 -0.76
v 0.2908394086 2.08 -0.7021484447
v 0.5374011537 2.08 -0.5374011537
v 0.7021484447 2.08 -0.2908394086
v 0.84 1.98 0
v 0.7760588073 1.98 0.3214540832
v 0.5939696962 1.98 0.5939696962
v 0.3214540832 1.98 0.7760588073
v -2.341237001e-17 1.98 0.84
v -0.3214540832 1.98 0.7760588073
v -0.5939696962 1.98 0.5939696962
v -0.7760588073 1.98 0.3214540832
v -0.84 1.98 6.083519252e-17
v -0.7760588073 1.98 -0.3214540832
v -0.5939696962 1.98 -0.5939696962
v -0.3214540832 1.98 -0.7760588073
v -1.814949316e-16 1.98 -0.84
v 0.3214540832 1.98 -0.7760588073
v 0.5939696962 1.98 -0.5939696962
v 0.7760588073 1.98 -0.3214540832
v 0.84 1.65 0
v 0.7760588073 1.65 0.3214540832
v 0.5939696962 1.65 0.5939696962
v 0.3214540832 1.65 0.7760588073
v -2.341237001e-17 1.65 0.84
v -0.3214540832 1.65 0.7760588073
v -0.5939696962 1.65 0.5939696962
v -0.7760588073 1.65 0.3214540832
v -0.84 1.65 6.083519252e-17
v -0.7760588073 1.65 -0.3214540832
v -0.5939696962 1.65 -0.5939696962
v -0.3214540832 1.65 -0.7760588073
v -1.814949316e-16 1.65 -0.84
v 0.3214540832 1.65 -0.7760588073
v 0.5939696962 1.65 -0.5939696962
v 0.7760588073 1.65 -0.3214540832
v 0.72 1.65 0
v 0.6651932634 1.65 0.2755320713
v 0.5091168825 1.65 0.5091168825
v 0.2755320713 1.65 0.6651932634
v -2.581050649e-17 1.65 0.72
v -0.2755320713 1.65 0.6651932634
v -0.5091168825 1.65 0.5091168825
v -0.6651932634 1.65 0.2755320713
v -0.72 1.65 2.493076968e-17
v -0.6651932634 1.65 -0.2755320713
v -0.5091168825 1.65 -0.5091168825
v -0.2755320713 1.65 -0.6651932634
v -1.490841748e-16 1.65 -0.72
v 0.2755320713 1.65 -0.6651932634
v 0.5091168825 1.65 -0.5091168825
v 0.6651932634 1.65 -0.2755320713
v 0.72 1.3 0
v 0.6651932634 1.3 0.2755320713
v 0.5091168825 1.3 0.5091168825
v 0.2755320713 1.3 0.6651932634
v -2.581050649e-17 1.3 0.72
v -0.2755320713 1.3 0.6651932634
v -0.5091168825 1.3 0.5091168825
v -0.6651932634 1.3 0.2755320713
v -0.72 1.3 2.493076968e-17
v -0.6651932634 1.3 -0.2755320713
v -0.5091168825 1.3 -0.5091168825
v -0.2755320713 1.3 -0.6651932634
v -1.490841748e-16 1.3 -0.72
v 0.2755320713 1.3 -0.6651932634
v 0.5091168825 1.3 -0.5091168825
v 0.6651932634 1.3 -0.2755320713
v 0.9 1.3 0
v 0.8314915793 1.3 0.3444150891
v 0.6363961031 1.3 0.6363961031
v 0.3444150891 1.3 0.8314915793
v -7.340939174e-18 1.3 0.9
v -0.3444150891 1.3 0.8314915793
v -0.6363961031 1.3 0.6363961031
v -0.8314915793 1.3 0.3444150891
v -0.9 1.3 8.332081462e-17
v -0.8314915793 1.3 -0.3444150891
v -0.6363961031 1.3 -0.6363961031
v -0.3444150891 1.3 -0.8314915793
v -1.88610359e-16 1.3 -0.9
v 0.3444150891 1.3 -0.8314915793
v 0.6363961031 1.3 -0.6363961031
v 0.8314915793 1.3 -0.3444150891
v 0.9 0.88 0
v 0.8314915793 0.88 0.3444150891
v 0.6363961031 0.88 0.6363961031
v 0.3444150891 0.88 0.8314915793
v -7.340939174e-18 0.88 0.9
v -0.3444150891 0.88 0.8314915793
v -0.6363961031 0.88 0.6363961031
v -0.8314915793 0.88 0.3444150891
v -0.9 0.88 8.332081462e-17
v -0.8314915793 0.88 -0.3444150891
v -0.6363961031 0.88 -0.6363961031
v -0.3444150891 0.88 -0.8314915793
v -1.88610359e-16 0.88 -0.9
v 0.3444150891 0.88 -0.8314915793
v 0.6363961031 0.88 -0.6363961031
v 0.8314915793 0.88 -0.3444150891
v 0.78 0.84 -6.162975822e-33
v 0.7206260354 0.84 0.2984930772
v 0.5515432893 0.84 0.5515432893
v 0.2984930772 0.84 0.7206260354
v 2.083831682e-17 0.84 0.78
v -0.2984930772 0.84 0.7206260354
v -0.5515432893 0.84 0.5515432893
v -0.7206260354 0.84 0.2984930772
v -0.78 0.84 4.561227937e-17
v -0.7206260354 0.84 -0.2984930772
v -0.5515432893 0.84 -0.5515432893
v -0.2984930772 0.84 -0.7206260354
v -1.186833158e-16 0.84 -0.78
v 0.2984930772 0.84 -0.7206260354
v 0.5515432893 0.84 -0.5515432893
v 0.7206260354 0.84 -0.2984930772
v 0.78 0.76 -6.162975822e-33
v 0.7206260354 0.76 0.2984930772
v 0.5515432893 0.76 0.5515432893
v 0.2984930772 0.76 0.7206260354
v 2.083831682e-17 0.76 0.78
v -0.2984930772 0.76 0.7206260354
v -0.5515432893 0.76 0.5515432893
v -0.7206260354 0.76 0.2984930772
v -0.78 0.76 4.561227937e-17
v -0.7206260354 0.76 -0.2984930772
v -0.5515432893 0.76 -0.5515432893
v -0.2984930772 0.76 -0.7206260354
v -1.186833158e-16 0.76 -0.78
v 0.2984930772 0.76 -0.7206260354
v 0.5515432893 0.76 -0.5515432893
v 0.7206260354 0.76 -0.2984930772
v 0.9 0.72 0
v 0.8314915793 0.72 0.3444150891
v 0.6363961031 0.72 0.6363961031
v 0.3444150891 0.72 0.8314915793
v -7.340939174e-18 0.72 0.9
v -0.3444150891 0.72 0.8314915793
v -0.6363961031 0.72 0.6363961031
v -0.8314915793 0.72 0.3444150891
v -0.9 0.72 8.332081462e-17
v -0.8314915793 0.72 -0.3444150891
v -0.6363961031 0.72 -0.6363961031
v -0.3444150891 0.72 -0.8314915793
v -1.88610359e-16 0.72 -0.9
v 0.3444150891 0.72 -0.8314915793
v 0.6363961031 0.72 -0.6363961031
v 0.8314915793 0.72 -0.3444150891
v 0.9 0.28 0
v 0.8314915793 0.28 0.3444150891
v 0.6363961031 0.28 0.6363961031
v 0.3444150891 0.28 0.8314915793
v -7.340939174e-18 0.28 0.9
v -0.3444150891 0.28 0.8314915793
v -0.6363961031 0.28 0.6363961031
v -0.8314915793 0.28 0.3444150891
v -0.9 0.28 8.332081462e-17
v -0.8314915793 0.28 -0.3444150891
v -0.6363961031 0.28 -0.6363961031
v -0.3444150891 0.28 -0.8314915793
v -1.88610359e-16 0.28 -0.9
v 0.3444150891 0.28 -0.8314915793
v 0.6363961031 0.28 -0.6363961031
v 0.8314915793 0.28 -0.3444150891
v 0.9 0.12 0
v 0.8314915793 0.12 0.3444150891
v 0.6363961031 0.12 0.6363961031
v 0.3444150891 0.12 0.8314915793
v -7.340939174e-18 0.12 0.9
v -0.3444150891 0.12 0.8314915793
v -0.6363961031 0.12 0.6363961031
v -0.8314915793 0.12 0.3444150891
v -0.9 0.12 8.332081462e-17
v -0.8314915793 0.12 -0.3444150891
v -0.6363961031 0.12 -0.6363961031
v -0.3444150891 0.12 -0.8314915793
v -1.88610359e-16 0.12 -0.9
v 0.3444150891 0.12 -0.8314915793
v 0.6363961031 0.12 -0.6363961031
v 0.8314915793 0.12 -0.3444150891
v 0.78 0 -6.162975822e-33
v 0.7206260354 0 0.2984930772
v 0.5515432893 0 0.5515432893
v 0.2984930772 0 0.7206260354
v 2.083831682e-17 0 0.78
v -0.2984930772 0 0.7206260354
v -0.5515432893 0 0.5515432893
v -0.7206260354 0 0.2984930772
v -0.78 0 4.561227937e-17
v -0.7206260354 0 -0.2984930772
v -0.5515432893 0 -0.5515432893
v -0.2984930772 0 -0.7206260354
v -1.186833158e-16 0 -0.78
v 0.2984930772 0 -0.7206260354
v 0.5515432893 0 -0.5515432893
v 0.7206260354 0 -0.2984930772
vt 0.02 0.02
vt 0.045 0.02
vt 0.07 0.02
vt 0.095 0.02
vt 0.12 0.02
vt 0.145 0.02
vt 0.17 0.02
vt 0.195 0.02
vt 0.22 0.02
vt 0.245 0.02
vt 0.27 0.02
vt 0.295 0.02
vt 0.32 0.02
vt 0.345 0.02
vt 0.37 0.02
vt 0.395 0.02
vt 0.42 0.02
vt 0.445 0.02
vt 0.47 0.02
vt 0.495 0.02
vt 0.52 0.02
vt 0.545 0.02
vt 0.57 0.02
vt 0.595 0.02
vt 0.62 0.02
vt 0.02 0.08128302811
vt 0.045 0.08128302811
vt 0.07 0.08128302811
vt 0.095 0.08128302811
vt 0.12 0.08128302811
vt 0.145 0.08128302811
vt 0.17 0.08128302811
vt 0.195 0.08128302811
vt 0.22 0.08128302811
vt 0.245 0.08128302811
vt 0.27 0.08128302811
vt 0.295 0.08128302811
vt 0.32 0.08128302811
vt 0.345 0.08128302811
vt 0.37 0.08128302811
vt 0.395 0.08128302811
vt 0.42 0.08128302811
vt 0.445 0.08128302811
vt 0.47 0.08128302811
vt 0.495 0.08128302811
vt 0.52 0.08128302811
vt 0.545 0.08128302811
vt 0.57 0.08128302811
vt 0.595 0.08128302811
vt 0.62 0.08128302811
vt 0.02 0.1390612211
vt 0.045 0.1390612211
vt 0.07 0.1390612211
vt 0.095 0.1390612211
vt 0.12 0.1390612211
vt 0.145 0.1390612211
vt 0.17 0.1390612211
vt 0.195 0.1390612211
vt 0.22 0.1390612211
vt 0.245 0.1390612211
vt 0.27 0.1390612211
vt 0.295 0.1390612211
vt 0.32 0.1390612211
vt 0.345 0.1390612211
vt 0.37 0.1390612211
vt 0.395 0.1390612211
vt 0.42 0.1390612211
vt 0.445 0.1390612211
vt 0.47 0.1390612211
vt 0.495 0.1390612211
vt 0.52 0.1390612211
vt 0.545 0.1390612211
vt 0.57 0.1390612211
vt 0.595 0.1390612211
vt 0.62 0.1390612211
vt 0.02 0.2979512518
vt 0.045 0.2979512518
vt 0.07 0.2979512518
vt 0.095 0.2979512518
vt 0.12 0.2979512518
vt 0.145 0.2979512518
vt 0.17 0.2979512518
vt 0.195 0.2979512518
vt 0.22 0.2979512518
vt 0.245 0.2979512518
vt 0.27 0.2979512518
vt 0.295 0.2979512518
vt 0.32 0.2979512518
vt 0.345 0.2979512518
vt 0.37 0.2979512518
vt 0.395 0.2979512518
vt 0.42 0.2979512518
vt 0.445 0.2979512518
vt 0.47 0.2979512518
vt 0.495 0.2979512518
vt 0.52 0.2979512518
vt 0.545 0.2979512518
vt 0.57 0.2979512518
vt 0.595 0.2979512518
vt 0.62 0.2979512518
vt 0.02 0.3436289241
vt 0.045 0.3436289241
vt 0.07 0.3436289241
vt 0.095 0.3436289241
vt 0.12 0.3436289241
vt 0.145 0.3436289241
vt 0.17 0.3436289241
vt 0.195 0.3436289241
vt 0.22 0.3436289241
vt 0.245 0.3436289241
vt 0.27 0.3436289241
vt 0.295 0.3436289241
vt 0.32 0.3436289241
vt 0.345 0.3436289241
vt 0.37 0.3436289241
vt 0.395 0.3436289241
vt 0.42 0.3436289241
vt 0.445 0.3436289241
vt 0.47 0.3436289241
vt 0.495 0.3436289241
vt 0.52 0.3436289241
vt 0.545 0.3436289241
vt 0.57 0.3436289241
vt 0.595 0.3436289241
vt 0.62 0.3436289241
vt 0.02 0.3725180206
vt 0.045 0.3725180206
vt 0.07 0.3725180206
vt 0.095 0.3725180206
vt 0.12 0.3725180206
vt 0.145 0.3725180206
vt 0.17 0.3725180206
vt 0.195 0.3725180206
vt 0.22 0.3725180206
vt 0.245 0.3725180206
vt 0.27 0.3725180206
vt 0.295 0.3725180206
vt 0.32 0.3725180206
vt 0.345 0.3725180206
vt 0.37 0.3725180206
vt 0.395 0.3725180206
vt 0.42 0.3725180206
vt 0.445 0.3725180206
vt 0.47 0.3725180206
vt 0.495 0.3725180206
vt 0.52 0.3725180206
vt 0.545 0.3725180206
vt 0.57 0.3725180206
vt 0.595 0.3725180206
vt 0.62 0.3725180206
vt 0.02 0.4181956928
vt 0.045 0.4181956928
vt 0.07 0.4181956928
vt 0.095 0.4181956928
vt 0.12 0.4181956928
vt 0.145 0.4181956928
vt 0.17 0.4181956928
vt 0.195 0.4181956928
vt 0.22 0.4181956928
vt 0.245 0.4181956928
vt 0.27 0.4181956928
vt 0.295 0.4181956928
vt 0.32 0.4181956928
vt 0.345 0.4181956928
vt 0.37 0.4181956928
vt 0.395 0.4181956928
vt 0.42 0.4181956928
vt 0.445 0.4181956928
vt 0.47 0.4181956928
vt 0.495 0.4181956928
vt 0.52 0.4181956928
vt 0.545 0.4181956928
vt 0.57 0.4181956928
vt 0.595 0.4181956928
vt 0.62 0.4181956928
vt 0.02 0.5698634494
vt 0.045 0.5698634494
vt 0.07 0.5698634494
vt 0.095 0.5698634494
vt 0.12 0.5698634494
vt 0.145 0.5698634494
vt 0.17 0.5698634494
vt 0.195 0.5698634494
vt 0.22 0.5698634494
vt 0.245 0.5698634494
vt 0.27 0.5698634494
vt 0.295 0.5698634494
vt 0.32 0.5698634494
vt 0.345 0.5698634494
vt 0.37 0.5698634494
vt 0.395 0.5698634494
vt 0.42 0.5698634494
vt 0.445 0.5698634494
vt 0.47 0.5698634494
vt 0.495 0.5698634494
vt 0.52 0.5698634494
vt 0.545 0.5698634494
vt 0.57 0.5698634494
vt 0.595 0.5698634494
vt 0.62 0.5698634494
vt 0.02 0.6348639165
vt 0.045 0.6348639165
vt 0.07 0.6348639165
vt 0.095 0.6348639165
vt 0.12 0.6348639165
vt 0.145 0.6348639165
vt 0.17 0.6348639165
vt 0.195 0.6348639165
vt 0.22 0.6348639165
vt 0.245 0.6348639165
vt 0.27 0.6348639165
vt 0.295 0.6348639165
vt 0.32 0.6348639165
vt 0.345 0.6348639165
vt 0.37 0.6348639165
vt 0.395 0.6348639165
vt 0.42 0.6348639165
vt 0.445 0.6348639165
vt 0.47 0.6348639165
vt 0.495 0.6348639165
vt 0.52 0.6348639165
vt 0.545 0.6348639165
vt 0.57 0.6348639165
vt 0.595 0.6348639165
vt 0.62 0.6348639165
vt 0.02 0.7612537137
vt 0.045 0.7612537137
vt 0.07 0.7612537137
vt 0.095 0.7612537137
vt 0.12 0.7612537137
vt 0.145 0.7612537137
vt 0.17 0.7612537137
vt 0.195 0.7612537137
vt 0.22 0.7612537137
vt 0.245 0.7612537137
vt 0.27 0.7612537137
vt 0.295 0.7612537137
vt 0.32 0.7612537137
vt 0.345 0.7612537137
vt 0.37 0.7612537137
vt 0.395 0.7612537137
vt 0.42 0.7612537137
vt 0.445 0.7612537137
vt 0.47 0.7612537137
vt 0.495 0.7612537137
vt 0.52 0.7612537137
vt 0.545 0.7612537137
vt 0.57 0.7612537137
vt 0.595 0.7612537137
vt 0.62 0.7612537137
vt 0.02 0.8045873585
vt 0.045 0.8045873585
vt 0.07 0.8045873585
vt 0.095 0.8045873585
vt 0.12 0.8045873585
vt 0.145 0.8045873585
vt 0.17 0.8045873585
vt 0.195 0.8045873585
vt 0.22 0.8045873585
vt 0.245 0.8045873585
vt 0.27 0.8045873585
vt 0.295 0.8045873585
vt 0.32 0.8045873585
vt 0.345 0.8045873585
vt 0.37 0.8045873585
vt 0.395 0.8045873585
vt 0.42 0.8045873585
vt 0.445 0.8045873585
vt 0.47 0.8045873585
vt 0.495 0.8045873585
vt 0.52 0.8045873585
vt 0.545 0.8045873585
vt 0.57 0.8045873585
vt 0.595 0.8045873585
vt 0.62 0.8045873585
vt 0.02 0.9237548815
vt 0.045 0.9237548815
vt 0.07 0.9237548815
vt 0.095 0.9237548815
vt 0.12 0.9237548815
vt 0.145 0.9237548815
vt 0.17 0.9237548815
vt 0.195 0.9237548815
vt 0.22 0.9237548815
vt 0.245 0.9237548815
vt 0.27 0.9237548815
vt 0.295 0.9237548815
vt 0.32 0.9237548815
vt 0.345 0.9237548815
vt 0.37 0.9237548815
vt 0.395 0.9237548815
vt 0.42 0.9237548815
vt 0.445 0.9237548815
vt 0.47 0.9237548815
vt 0.495 0.9237548815
vt 0.52 0.9237548815
vt 0.545 0.9237548815
vt 0.57 0.9237548815
vt 0.595 0.9237548815
vt 0.62 0.9237548815
vt 0.02 0.97
vt 0.045 0.97
vt 0.07 0.97
vt 0.095 0.97
vt 0.12 0.97
vt 0.145 0.97
vt 0.17 0.97
vt 0.195 0.97
vt 0.22 0.97
vt 0.245 0.97
vt 0.27 0.97
vt 0.295 0.97
vt 0.32 0.97
vt 0.345 0.97
vt 0.37 0.97
vt 0.395 0.97
vt 0.42 0.97
vt 0.445 0.97
vt 0.47 0.97
vt 0.495 0.97
vt 0.52 0.97
vt 0.545 0.97
vt 0.57 0.97
vt 0.595 0.97
vt 0.62 0.97
vt 0.96 0.25
vt 0.9548888739 0.2888228568
vt 0.9399038106 0.325
vt 0.9160660172 0.3560660172
vt 0.885 0.3799038106
vt 0.8488228568 0.3948888739
vt 0.81 0.4
vt 0.7711771432 0.3948888739
vt 0.735 0.3799038106
vt 0.7039339828 0.3560660172
vt 0.6800961894 0.325
vt 0.6651111261 0.2888228568
vt 0.66 0.25
vt 0.6651111261 0.2111771432
vt 0.6800961894 0.175
vt 0.7039339828 0.1439339828
vt 0.735 0.1200961894
vt 0.7711771432 0.1051111261
vt 0.81 0.1
vt 0.8488228568 0.1051111261
vt 0.885 0.1200961894
vt 0.9160660172 0.1439339828
vt 0.9399038106 0.175
vt 0.9548888739 0.2111771432
vt 0.96 0.73
vt 0.9548888739 0.7688228568
vt 0.9399038106 0.805
vt 0.9160660172 0.8360660172
vt 0.885 0.8599038106
vt 0.8488228568 0.8748888739
vt 0.81 0.88
vt 0.7711771432 0.8748888739
vt 0.735 0.8599038106
vt 0.7039339828 0.8360660172
vt 0.6800961894 0.805
vt 0.6651111261 0.7688228568
vt 0.66 0.73
vt 0.6651111261 0.6911771432
vt 0.6800961894 0.655
vt 0.7039339828 0.6239339828
vt 0.735 0.6000961894
vt 0.7711771432 0.5851111261
vt 0.81 0.58
vt 0.8488228568 0.5851111261
vt 0.885 0.6000961894
vt 0.9160660172 0.6239339828
vt 0.9399038106 0.655
vt 0.9548888739 0.6911771432
vt 0.0575 0.97
vt 0.0575 0.9237548815
vt 0.1325 0.97
vt 0.1325 0.9237548815
vt 0.2075 0.97
vt 0.2075 0.9237548815
vt 0.2825 0.97
vt 0.2825 0.9237548815
vt 0.3575 0.97
vt 0.3575 0.9237548815
vt 0.4325 0.97
vt 0.4325 0.9237548815
vt 0.5075 0.97
vt 0.5075 0.9237548815
vt 0.5825 0.97
vt 0.5825 0.9237548815
vt 0.0575 0.8045873585
vt 0.1325 0.8045873585
vt 0.2075 0.8045873585
vt 0.2825 0.8045873585
vt 0.3575 0.8045873585
vt 0.4325 0.8045873585
vt 0.5075 0.8045873585
vt 0.5825 0.8045873585
vt 0.0575 0.7612537137
vt 0.1325 0.7612537137
vt 0.2075 0.7612537137
vt 0.2825 0.7612537137
vt 0.3575 0.7612537137
vt 0.4325 0.7612537137
vt 0.5075 0.7612537137
vt 0.5825 0.7612537137
vt 0.0575 0.6348639165
vt 0.1325 0.6348639165
vt 0.2075 0.6348639165
vt 0.2825 0.6348639165
vt 0.3575 0.6348639165
vt 0.4325 0.6348639165
vt 0.5075 0.6348639165
vt 0.5825 0.6348639165
vt 0.0575 0.5698634494
vt 0.1325 0.5698634494
vt 0.2075 0.5698634494
vt 0.2825 0.5698634494
vt 0.3575 0.5698634494
vt 0.4325 0.5698634494
vt 0.5075 0.5698634494
vt 0.5825 0.5698634494
vt 0.0575 0.4181956928
vt 0.1325 0.4181956928
vt 0.2075 0.4181956928
vt 0.2825 0.4181956928
vt 0.3575 0.4181956928
vt 0.4325 0.4181956928
vt 0.5075 0.4181956928
vt 0.5825 0.4181956928
vt 0.0575 0.3725180206
vt 0.1325 0.3725180206
vt 0.2075 0.3725180206
vt 0.2825 0.3725180206
vt 0.3575 0.3725180206
vt 0.4325 0.3725180206
vt 0.5075 0.3725180206
vt 0.5825 0.3725180206
vt 0.0575 0.3436289241
vt 0.1325 0.3436289241
vt 0.2075 0.3436289241
vt 0.2825 0.3436289241
vt 0.3575 0.3436289241
vt 0.4325 0.3436289241
vt 0.5075 0.3436289241
vt 0.5825 0.3436289241
vt 0.0575 0.2979512518
vt 0.1325 0.2979512518
vt 0.2075 0.2979512518
vt 0.2825 0.2979512518
vt 0.3575 0.2979512518
vt 0.4325 0.2979512518
vt 0.5075 0.2979512518
vt 0.5825 0.2979512518
vt 0.0575 0.1390612211
vt 0.1325 0.1390612211
vt 0.2075 0.1390612211
vt 0.2825 0.1390612211
vt 0.3575 0.1390612211
vt 0.4325 0.1390612211
vt 0.5075 0.1390612211
vt 0.5825 0.1390612211
vt 0.0575 0.08128302811
vt 0.1325 0.08128302811
vt 0.2075 0.08128302811
vt 0.2825 0.08128302811
vt 0.3575 0.08128302811
vt 0.4325 0.08128302811
vt 0.5075 0.08128302811
vt 0.5825 0.08128302811
vt 0.0575 0.02
vt 0.1325 0.02
vt 0.2075 0.02
vt 0.2825 0.02
vt 0.3575 0.02
vt 0.4325 0.02
vt 0.5075 0.02
vt 0.5825 0.02
vt 0.9473963423 0.7869114284
vt 0.8669114284 0.8673963423
vt 0.7530885716 0.8673963423
vt 0.6726036577 0.7869114284
vt 0.6726036577 0.6730885716
vt 0.7530885716 0.5926036577
vt 0.8669114284 0.5926036577
vt 0.9473963423 0.6730885716
vt 0.9473963423 0.3069114284
vt 0.8669114284 0.3873963423
vt 0.7530885716 0.3873963423
vt 0.6726036577 0.3069114284
vt 0.6726036577 0.1930885716
vt 0.7530885716 0.1126036577
vt 0.8669114284 0.1126036577
vt 0.9473963423 0.1930885716
s 1
f 313/674 314/747 330/748 329/649
f 314/747 315/677 331/652 330/748
f 315/677 316/749 332/750 331/652
f 316/749 317/680 333/655 332/750
f 317/680 318/751 334/752 333/655
f 318/751 319/683 335/658 334/752
f 319/683 320/753 336/754 335/658
f 320/753 321/686 337/661 336/754
f 321/686 322/755 338/756 337/661
f 322/755 323/689 339/664 338/756
f 323/689 324/757 340/758 339/664
f 324/757 325/692 341/667 340/758
f 325/692 326/759 342/760 341/667
f 326/759 327/695 343/670 342/760
f 327/695 328/761 344/762 343/670
f 328/761 313/698 329/673 344/762
f 329/649 330/748 346/763 345/624
f 330/748 331/652 347/627 346/763
f 331/652 332/750 348/764 347/627
f 332/750 333/655 349/630 348/764
f 333/655 334/752 350/765 349/630
f 334/752 335/658 351/633 350/765
f 335/658 336/754 352/766 351/633
f 336/754 337/661 353/636 352/766
f 337/661 338/756 354/767 353/636
f 338/756 339/664 355/639 354/767
f 339/664 340/758 356/768 355/639
f 340/758 341/667 357/642 356/768
f 341/667 342/760 358/769 357/642
f 342/760 343/670 359/645 358/769
f 343/670 344/762 360/770 359/645
f 344/762 329/673 345/648 360/770
f 345/624 346/763 362/771 361/599
f 346/763 347/627 363/602 362/771
f 347/627 348/764 364/772 363/602
f 348/764 349/630 365/605 364/772
f 349/630 350/765 366/773 365/605
f 350/765 351/633 367/608 366/773
f 351/633 352/766 368/774 367/608
f 352/766 353/636 369/611 368/774
f 353/636 354/767 370/775 369/611
f 354/767 355/639 371/614 370/775
f 355/639 356/768 372/776 371/614
f 356/768 357/642 373/617 372/776
f 357/642 358/769 374/777 373/617
f 358/769 359/645 375/620 374/777
f 359/645 360/770 376/778 375/620
f 360/770 345/648 361/623 376/778
f 361/599 362/771 378/779 377/574
f 362/771 363/602 379/577 378/779
f 363/602 364/772 380/780 379/577
f 364/772 365/605 381/580 380/780
f 365/605 366/773 382/781 381/580
f 366/773 367/608 383/583 382/781
f 367/608 368/774 384/782 383/583
f 368/774 369/611 385/586 384/782
f 369/611 370/775 386/783 385/586
f 370/775 371/614 387/589 386/783
f 371/614 372/776 388/784 387/589
f 372/776 373/617 389/592 388/784
f 373/617 374/777 390/785 389/592
f 374/777 375/620 391/595 390/785
f 375/620 376/778 392/786 391/595
f 376/778 361/623 377/598 392/786
f 377/574 378/779 394/787 393/549
f 378/779 379/577 395/552 394/787
f 379/577 380/780 396/788 395/552
f 380/780 381/580 397/555 396/788
f 381/580 382/781 398/789 397/555
f 382/781 383/583 399/558 398/789
f 383/583 384/782 400/790 399/558
f 384/782 385/586 401/561 400/790
f 385/586 386/783 402/791 401/561
f 386/783 387/589 403/564 402/791
f 387/589 388/784 404/792 403/564
f 388/784 389/592 405/567 404/792
f 389/592 390/785 406/793 405/567
f 390/785 391/595 407/570 406/793
f 391/595 392/786 408/794 407/570
f 392/786 377/598 393/573 408/794
f 393/549 394/787 410/795 409/524
f 394/787 395/552 411/527 410/795
f 395/552 396/788 412/796 411/527
f 396/788 397/555 413/530 412/796
f 397/555 398/789 414/797 413/530
f 398/789 399/558 415/533 414/797
f 399/558 400/790 416/798 415/533
f 400/790 401/561 417/536 416/798
f 401/561 402/791 418/799 417/536
f 402/791 403/564 419/539 418/799
f 403/564 404/792 420/800 419/539
f 404/792 405/567 421/542 420/800
f 405/567 406/793 422/801 421/542
f 406/793 407/570 423/545 422/801
f 407/570 408/794 424/802 423/545
f 408/794 393/573 409/548 424/802
f 409/524 410/795 426/803 425/499
f 410/795 411/527 427/502 426/803
f 411/527 412/796 428/804 427/502
f 412/796 413/530 429/505 428/804
f 413/530 414/797 430/805 429/505
f 414/797 415/533 431/508 430/805
f 415/533 416/798 432/806 431/508
f 416/798 417/536 433/511 432/806
f 417/536 418/799 434/807 433/511
f 418/799 419/539 435/514 434/807
f 419/539 420/800 436/808 435/514
f 420/800 421/542 437/517 436/808
f 421/542 422/801 438/809 437/517
f 422/801 423/545 439/520 438/809
f 423/545 424/802 440/810 439/520
f 424/802 409/548 425/523 440/810
f 425/499 426/803 442/811 441/474
f 426/803 427/502 443/477 442/811
f 427/502 428/804 444/812 443/477
f 428/804 429/505 445/480 444/812
f 429/505 430/805 446/813 445/480
f 430/805 431/508 447/483 446/813
f 431/508 432/806 448/814 447/483
f 432/806 433/511 449/486 448/814
f 433/511 434/807 450/815 449/486
f 434/807 435/514 451/489 450/815
f 435/514 436/808 452/816 451/489
f 436/808 437/517 453/492 452/816
f 437/517 438/809 454/817 453/492
f 438/809 439/520 455/495 454/817
f 439/520 440/810 456/818 455/495
f 440/810 425/523 441/498 456/818
f 441/474 442/811 458/819 457/449
f 442/811 443/477 459/452 458/819
f 443/477 444/812 460/820 459/452
f 444/812 445/480 461/455 460/820
f 445/480 446/813 462/821 461/455
f 446/813 447/483 463/458 462/821
f 447/483 448/814 464/822 463/458
f 448/814 449/486 465/461 464/822
f 449/486 450/815 466/823 465/461
f 450/815 451/489 467/464 466/823
f 451/489 452/816 468/824 467/464
f 452/816 453/492 469/467 468/824
f 453/492 454/817 470/825 469/467
f 454/817 455/495 471/470 470/825
f 455/495 456/818 472/826 471/470
f 456/818 441/498 457/473 472/826
f 457/449 458/819 474/827 473/424
f 458/819 459/452 475/427 474/827
f 459/452 460/820 476/828 475/427
f 460/820 461/455 477/430 476/828
f 461/455 462/821 478/829 477/430
f 462/821 463/458 479/433 478/829
f 463/458 464/822 480/830 479/433
f 464/822 465/461 481/436 480/830
f 465/461 466/823 482/831 481/436
f 466/823 467/464 483/439 482/831
f 467/464 468/824 484/832 483/439
f 468/824 469/467 485/442 484/832
f 469/467 470/825 486/833 485/442
f 470/825 471/470 487/445 486/833
f 471/470 472/826 488/834 487/445
f 472/826 457/473 473/448 488/834
f 473/424 474/827 490/835 489/399
f 474/827 475/427 491/402 490/835
f 475/427 476/828 492/836 491/402
f 476/828 477/430 493/405 492/836
f 477/430 478/829 494/837 493/405
f 478/829 479/433 495/408 494/837
f 479/433 480/830 496/838 495/408
f 480/830 481/436 497/411 496/838
f 481/436 482/831 498/839 497/411
f 482/831 483/439 499/414 498/839
f 483/439 484/832 500/840 499/414
f 484/832 485/442 501/417 500/840
f 485/442 486/833 502/841 501/417
f 486/833 487/445 503/420 502/841
f 487/445 488/834 504/842 503/420
f 488/834 473/448 489/423 504/842
f 489/399 490/835 506/843 505/374
f 490/835 491/402 507/377 506/843
f 491/402 492/836 508/844 507/377
f 492/836 493/405 509/380 508/844
f 493/405 494/837 510/845 509/380
f 494/837 495/408 511/383 510/845
f 495/408 496/838 512/846 511/383
f 496/838 497/411 513/386 512/846
f 497/411 498/839 514/847 513/386
f 498/839 499/414 515/389 514/847
f 499/414 500/840 516/848 515/389
f 500/840 501/417 517/392 516/848
f 501/417 502/841 518/849 517/392
f 502/841 503/420 519/395 518/849
f 503/420 504/842 520/850 519/395
f 504/842 489/423 505/398 520/850
s off
f 328/858 327/744 326/857 325/741 324/856 323/738 322/855 321/735 320/854 319/732 318/853 317/729 316/852 315/726 314/851 313/723
s off
f 505/699 506/859 507/702 508/860 509/705 510/861 511/708 512/862 513/711 514/863 515/714 516/864 517/717 518/865 519/720 520/866

o Result36
g Result36
v 3.76 2.08 3.851859889e-34
v 3.748453892 2.08 0.131972615
v 3.714166392 2.08 0.2599353089
v 3.658179307 2.08 0.38
v 3.582193777 2.08 0.4885185834
v 3.488518583 2.08 0.5821937768
v 3.38 2.08 0.6581793069
v 3.259935309 2.08 0.7141663918
v 3.131972615 2.08 0.7484538923
v 3 2.08 0.76
v 2.868027385 2.08 0.7484538923
v 2.740064691 2.08 0.7141663918
v 2.62 2.08 0.6581793069
v 2.511481417 2.08 0.5821937768
v 2.417806223 2.08 0.4885185834
v 2.341820693 2.08 0.38
v 2.285833608 2.08 0.2599353089
v 2.251546108 2.08 0.131972615
v 2.24 2.08 1.266419385e-16
v 2.251546108 2.08 -0.131972615
v 2.285833608 2.08 -0.2599353089
v 2.341820693 2.08 -0.38
v 2.417806223 2.08 -0.4885185834
v 2.511481417 2.08 -0.5821937768
v 2.62 2.08 -0.6581793069
v 2.740064691 2.08 -0.7141663918
v 2.868027385 2.08 -0.7484538923
v 3 2.08 -0.76
v 3.131972615 2.08 -0.7484538923
v 3.259935309 2.08 -0.7141663918
v 3.38 2.08 -0.6581793069
v 3.488518583 2.08 -0.5821937768
v 3.582193777 2.08 -0.4885185834
v 3.658179307 2.08 -0.38
v 3.714166392 2.08 -0.2599353089
v 3.748453892 2.08 -0.131972615
v 3.84 1.98 0
v 3.827238513 1.98 0.1458644692
v 3.789341801 1.98 0.2872969204
v 3.727461339 1.98 0.42
v 3.643477332 1.98 0.5399415921
v 3.539941592 1.98 0.6434773322
v 3.42 1.98 0.7274613392
v 3.28729692 1.98 0.7893418015
v 3.145864469 1.98 0.8272385125
v 3 1.98 0.84
v 2.854135531 1.98 0.8272385125
v 2.71270308 1.98 0.7893418015
v 2.58 1.98 0.7274613392
v 2.460058408 1.98 0.6434773322
v 2.356522668 1.98 0.5399415921
v 2.272538661 1.98 0.42
v 2.210658199 1.98 0.2872969204
v 2.172761487 1.98 0.1458644692
v 2.16 1.98 6.083519252e-17
v 2.172761487 1.98 -0.1458644692
v 2.210658199 1.98 -0.2872969204
v 2.272538661 1.98 -0.42
v 2.356522668 1.98 -0.5399415921
v 2.460058408 1.98 -0.6434773322
v 2.58 1.98 -0.7274613392
v 2.71270308 1.98 -0.7893418015
v 2.854135531 1.98 -0.8272385125
v 3 1.98 -0.84
v 3.145864469 1.98 -0.8272385125
v 3.28729692 1.98 -0.7893418015
v 3.42 1.98 -0.7274613392
v 3.539941592 1.98 -0.6434773322
v 3.643477332 1.98 -0.5399415921
v 3.727461339 1.98 -0.42
v 3.789341801 1.98 -0.2872969204
v 3.827238513 1.98 -0.1458644692
v 3.84 1.65 0
v 3.827238513 1.65 0.1458644692
v 3.789341801 1.65 0.2872969204
v 3.727461339 1.65 0.42
v 3.643477332 1.65 0.5399415921
v 3.539941592 1.65 0.6434773322
v 3.42 1.65 0.7274613392
v 3.28729692 1.65 0.7893418015
v 3.145864469 1.65 0.8272385125
v 3 1.65 0.84
v 2.854135531 1.65 0.8272385125
v 2.71270308 1.65 0.7893418015
v 2.58 1.65 0.7274613392
v 2.460058408 1.65 0.6434773322
v 2.356522668 1.65 0.5399415921
v 2.272538661 1.65 0.42
v 2.210658199 1.65 0.2872969204
v 2.172761487 1.65 0.1458644692
v 2.16 1.65 6.083519252e-17
v 2.172761487 1.65 -0.1458644692
v 2.210658199 1.65 -0.2872969204
v 2.272538661 1.65 -0.42
v 2.356522668 1.65 -0.5399415921
v 2.460058408 1.65 -0.6434773322
v 2.58 1.65 -0.7274613392
v 2.71270308 1.65 -0.7893418015
v 2.854135531 1.65 -0.8272385125
v 3 1.65 -0.84
v 3.145864469 1.65 -0.8272385125
v 3.28729692 1.65 -0.7893418015
v 3.42 1.65 -0.7274613392
v 3.539941592 1.65 -0.6434773322
v 3.643477332 1.65 -0.5399415921
v 3.727461339 1.65 -0.42
v 3.789341801 1.65 -0.2872969204
v 3.827238513 1.65 -0.1458644692
v 3.72 1.65 0
v 3.709061582 1.65 0.1250266879
v 3.676578687 1.65 0.2462545032
v 3.623538291 1.65 0.36
v 3.551551999 1.65 0.462807079
v 3.462807079 1.65 0.551551999
v 3.36 1.65 0.6235382907
v 3.246254503 1.65 0.676578687
v 3.125026688 1.65 0.7090615822
v 3 1.65 0.72
v 2.874973312 1.65 0.7090615822
v 2.753745497 1.65 0.676578687
v 2.64 1.65 0.6235382907
v 2.537192921 1.65 0.551551999
v 2.448448001 1.65 0.462807079
v 2.376461709 1.65 0.36
v 2.323421313 1.65 0.2462545032
v 2.290938418 1.65 0.1250266879
v 2.28 1.65 2.493076968e-17
v 2.290938418 1.65 -0.1250266879
v 2.323421313 1.65 -0.2462545032
v 2.376461709 1.65 -0.36
v 2.448448001 1.65 -0.462807079
v 2.537192921 1.65 -0.551551999
v 2.64 1.65 -0.6235382907
v 2.753745497 1.65 -0.676578687
v 2.874973312 1.65 -0.7090615822
v 3 1.65 -0.72
v 3.125026688 1.65 -0.7090615822
v 3.246254503 1.65 -0.676578687
v 3.36 1.65 -0.6235382907
v 3.462807079 1.65 -0.551551999
v 3.551551999 1.65 -0.462807079
v 3.623538291 1.65 -0.36
v 3.676578687 1.65 -0.2462545032
v 3.709061582 1.65 -0.1250266879
v 3.72 1.3 0
v 3.709061582 1.3 0.1250266879
v 3.676578687 1.3 0.2462545032
v 3.623538291 1.3 0.36
v 3.551551999 1.3 0.462807079
v 3.462807079 1.3 0.551551999
v 3.36 1.3 0.6235382907
v 3.246254503 1.3 0.676578687
v 3.125026688 1.3 0.7090615822
v 3 1.3 0.72
v 2.874973312 1.3 0.7090615822
v 2.753745497 1.3 0.676578687
v 2.64 1.3 0.6235382907
v 2.537192921 1.3 0.551551999
v 2.448448001 1.3 0.462807079
v 2.376461709 1.3 0.36
v 2.323421313 1.3 0.2462545032
v 2.290938418 1.3 0.1250266879
v 2.28 1.3 2.493076968e-17
v 2.290938418 1.3 -0.1250266879
v 2.323421313 1.3 -0.2462545032
v 2.376461709 1.3 -0.36
v 2.448448001 1.3 -0.462807079
v 2.537192921 1.3 -0.551551999
v 2.64 1.3 -0.6235382907
v 2.753745497 1.3 -0.676578687
v 2.874973312 1.3 -0.7090615822
v 3 1.3 -0.72
v 3.125026688 1.3 -0.7090615822
v 3.246254503 1.3 -0.676578687
v 3.36 1.3 -0.6235382907
v 3.462807079 1.3 -0.551551999
v 3.551551999 1.3 -0.462807079
v 3.623538291 1.3 -0.36
v 3.676578687 1.3 -0.2462545032
v 3.709061582 1.3 -0.1250266879
v 3.9 1.3 0
v 3.886326978 1.3 0.1562833599
v 3.845723359 1.3 0.307818129
v 3.779422863 1.3 0.45
v 3.689439999 1.3 0.5785088487
v 3.578508849 1.3 0.6894399988
v 3.45 1.3 0.7794228634
v 3.307818129 1.3 0.8457233587
v 3.15628336 1.3 0.8863269777
v 3 1.3 0.9
v 2.84371664 1.3 0.8863269777
v 2.692181871 1.3 0.8457233587
v 2.55 1.3 0.7794228634
v 2.421491151 1.3 0.6894399988
v 2.310560001 1.3 0.5785088487
v 2.220577137 1.3 0.45
v 2.154276641 1.3 0.307818129
v 2.113673022 1.3 0.1562833599
v 2.1 1.3 8.332081462e-17
v 2.113673022 1.3 -0.1562833599
v 2.154276641 1.3 -0.307818129
v 2.220577137 1.3 -0.45
v 2.310560001 1.3 -0.5785088487
v 2.421491151 1.3 -0.6894399988
v 2.55 1.3 -0.7794228634
v 2.692181871 1.3 -0.8457233587
v 2.84371664 1.3 -0.8863269777
v 3 1.3 -0.9
v 3.15628336 1.3 -0.8863269777
v 3.307818129 1.3 -0.8457233587
v 3.45 1.3 -0.7794228634
v 3.578508849 1.3 -0.6894399988
v 3.689439999 1.3 -0.5785088487
v 3.779422863 1.3 -0.45
v 3.845723359 1.3 -0.307818129
v 3.886326978 1.3 -0.1562833599
v 3.9 0.88 0
v 3.886326978 0.88 0.1562833599
v 3.845723359 0.88 0.307818129
v 3.779422863 0.88 0.45
v 3.689439999 0.88 0.5785088487
v 3.578508849 0.88 0.6894399988
v 3.45 0.88 0.7794228634
v 3.307818129 0.88 0.8457233587
v 3.15628336 0.88 0.8863269777
v 3 0.88 0.9
v 2.84371664 0.88 0.8863269777
v 2.692181871 0.88 0.8457233587
v 2.55 0.88 0.7794228634
v 2.421491151 0.88 0.6894399988
v 2.310560001 0.88 0.5785088487
v 2.220577137 0.88 0.45
v 2.154276641 0.88 0.307818129
v 2.113673022 0.88 0.1562833599
v 2.1 0.88 8.332081462e-17
v 2.113673022 0.88 -0.1562833599
v 2.154276641 0.88 -0.307818129
v 2.220577137 0.88 -0.45
v 2.310560001 0.88 -0.5785088487
v 2.421491151 0.88 -0.6894399988
v 2.55 0.88 -0.7794228634
v 2.692181871 0.88 -0.8457233587
v 2.84371664 0.88 -0.8863269777
v 3 0.88 -0.9
v 3.15628336 0.88 -0.8863269777
v 3.307818129 0.88 -0.8457233587
v 3.45 0.88 -0.7794228634
v 3.578508849 0.88 -0.6894399988
v 3.689439999 0.88 -0.5785088487
v 3.779422863 0.88 -0.45
v 3.845723359 0.88 -0.307818129
v 3.886326978 0.88 -0.1562833599
v 3.78 0.84 -6.162975822e-33
v 3.768150047 0.84 0.1354455786
v 3.732960244 0.84 0.2667757118
v 3.675499815 0.84 0.39
v 3.597514666 0.84 0.5013743356
v 3.501374336 0.84 0.5975146656
v 3.39 0.84 0.675499815
v 3.266775712 0.84 0.7329602442
v 3.135445579 0.84 0.7681500473
v 3 0.84 0.78
v 2.864554421 0.84 0.7681500473
v 2.733224288 0.84 0.7329602442
v 2.61 0.84 0.675499815
v 2.498625664 0.84 0.5975146656
v 2.402485334 0.84 0.5013743356
v 2.324500185 0.84 0.39
v 2.267039756 0.84 0.2667757118
v 2.231849953 0.84 0.1354455786
v 2.22 0.84 4.561227937e-17
v 2.231849953 0.84 -0.1354455786
v 2.267039756 0.84 -0.2667757118
v 2.324500185 0.84 -0.39
v 2.402485334 0.84 -0.5013743356
v 2.498625664 0.84 -0.5975146656
v 2.61 0.84 -0.675499815
v 2.733224288 0.84 -0.7329602442
v 2.864554421 0.84 -0.7681500473
v 3 0.84 -0.78
v 3.135445579 0.84 -0.7681500473
v 3.266775712 0.84 -0.7329602442
v 3.39 0.84 -0.675499815
v 3.501374336 0.84 -0.5975146656
v 3.597514666 0.84 -0.5013743356
v 3.675499815 0.84 -0.39
v 3.732960244 0.84 -0.2667757118
v 3.768150047 0.84 -0.1354455786
v 3.78 0.76 -6.162975822e-33
v 3.768150047 0.76 0.1354455786
v 3.732960244 0.76 0.2667757118
v 3.675499815 0.76 0.39
v 3.597514666 0.76 0.5013743356
v 3.501374336 0.76 0.5975146656
v 3.39 0.76 0.675499815
v 3.266775712 0.76 0.7329602442
v 3.135445579 0.76 0.7681500473
v 3 0.76 0.78
v 2.864554421 0.76 0.7681500473
v 2.733224288 0.76 0.7329602442
v 2.61 0.76 0.675499815
v 2.498625664 0.76 0.5975146656
v 2.402485334 0.76 0.5013743356
v 2.324500185 0.76 0.39
v 2.267039756 0.76 0.2667757118
v 2.231849953 0.76 0.1354455786
v 2.22 0.76 4.561227937e-17
v 2.231849953 0.76 -0.1354455786
v 2.267039756 0.76 -0.2667757118
v 2.324500185 0.76 -0.39
v 2.402485334 0.76 -0.5013743356
v 2.498625664 0.76 -0.5975146656
v 2.61 0.76 -0.675499815
v 2.733224288 0.76 -0.7329602442
v 2.864554421 0.76 -0.7681500473
v 3 0.76 -0.78
v 3.135445579 0.76 -0.7681500473
v 3.266775712 0.76 -0.7329602442
v 3.39 0.76 -0.675499815
v 3.501374336 0.76 -0.5975146656
v 3.597514666 0.76 -0.5013743356
v 3.675499815 0.76 -0.39
v 3.732960244 0.76 -0.2667757118
v 3.768150047 0.76 -0.1354455786
v 3.9 0.72 0
v 3.886326978 0.72 0.1562833599
v 3.845723359 0.72 0.307818129
v 3.779422863 0.72 0.45
v 3.689439999 0.72 0.5785088487
v 3.578508849 0.72 0.6894399988
v 3.45 0.72 0.7794228634
v 3.307818129 0.72 0.8457233587
v 3.15628336 0.72 0.8863269777
v 3 0.72 0.9
v 2.84371664 0.72 0.8863269777
v 2.692181871 0.72 0.8457233587
v 2.55 0.72 0.7794228634
v 2.421491151 0.72 0.6894399988
v 2.310560001 0.72 0.5785088487
v 2.220577137 0.72 0.45
v 2.154276641 0.72 0.307818129
v 2.113673022 0.72 0.1562833599
v 2.1 0.72 8.332081462e-17
v 2.113673022 0.72 -0.1562833599
v 2.154276641 0.72 -0.307818129
v 2.220577137 0.72 -0.45
v 2.310560001 0.72 -0.5785088487
v 2.421491151 0.72 -0.6894399988
v 2.55 0.72 -0.7794228634
v 2.692181871 0.72 -0.8457233587
v 2.84371664 0.72 -0.8863269777
v 3 0.72 -0.9
v 3.15628336 0.72 -0.8863269777
v 3.307818129 0.72 -0.8457233587
v 3.45 0.72 -0.7794228634
v 3.578508849 0.72 -0.6894399988
v 3.689439999 0.72 -0.5785088487
v 3.779422863 0.72 -0.45
v 3.845723359 0.72 -0.307818129
v 3.886326978 0.72 -0.1562833599
v 3.9 0.28 0
v 3.886326978 0.28 0.1562833599
v 3.845723359 0.28 0.307818129
v 3.779422863 0.28 0.45
v 3.689439999 0.28 0.5785088487
v 3.578508849 0.28 0.6894399988
v 3.45 0.28 0.7794228634
v 3.307818129 0.28 0.8457233587
v 3.15628336 0.28 0.8863269777
v 3 0.28 0.9
v 2.84371664 0.28 0.8863269777
v 2.692181871 0.28 0.8457233587
v 2.55 0.28 0.7794228634
v 2.421491151 0.28 0.6894399988
v 2.310560001 0.28 0.5785088487
v 2.220577137 0.28 0.45
v 2.154276641 0.28 0.307818129
v 2.113673022 0.28 0.1562833599
v 2.1 0.28 8.332081462e-17
v 2.113673022 0.28 -0.1562833599
v 2.154276641 0.28 -0.307818129
v 2.220577137 0.28 -0.45
v 2.310560001 0.28 -0.5785088487
v 2.421491151 0.28 -0.6894399988
v 2.55 0.28 -0.7794228634
v 2.692181871 0.28 -0.8457233587
v 2.84371664 0.28 -0.8863269777
v 3 0.28 -0.9
v 3.15628336 0.28 -0.8863269777
v 3.307818129 0.28 -0.8457233587
v 3.45 0.28 -0.7794228634
v 3.578508849 0.28 -0.6894399988
v 3.689439999 0.28 -0.5785088487
v 3.779422863 0.28 -0.45
v 3.845723359 0.28 -0.307818129
v 3.886326978 0.28 -0.1562833599
v 3.9 0.12 0
v 3.886326978 0.12 0.1562833599
v 3.845723359 0.12 0.307818129
v 3.779422863 0.12 0.45
v 3.689439999 0.12 0.5785088487
v 3.578508849 0.12 0.6894399988
v 3.45 0.12 0.7794228634
v 3.307818129 0.12 0.8457233587
v 3.15628336 0.12 0.8863269777
v 3 0.12 0.9
v 2.84371664 0.12 0.8863269777
v 2.692181871 0.12 0.8457233587
v 2.55 0.12 0.7794228634
v 2.421491151 0.12 0.6894399988
v 2.310560001 0.12 0.5785088487
v 2.220577137 0.12 0.45
v 2.154276641 0.12 0.307818129
v 2.113673022 0.12 0.1562833599
v 2.1 0.12 8.332081462e-17
v 2.113673022 0.12 -0.1562833599
v 2.154276641 0.12 -0.307818129
v 2.220577137 0.12 -0.45
v 2.310560001 0.12 -0.5785088487
v 2.421491151 0.12 -0.6894399988
v 2.55 0.12 -0.7794228634
v 2.692181871 0.12 -0.8457233587
v 2.84371664 0.12 -0.8863269777
v 3 0.12 -0.9
v 3.15628336 0.12 -0.8863269777
v 3.307818129 0.12 -0.8457233587
v 3.45 0.12 -0.7794228634
v 3.578508849 0.12 -0.6894399988
v 3.689439999 0.12 -0.5785088487
v 3.779422863 0.12 -0.45
v 3.845723359 0.12 -0.307818129
v 3.886326978 0.12 -0.1562833599
v 3.78 0 -6.162975822e-33
v 3.768150047 0 0.1354455786
v 3.732960244 0 0.2667757118
v 3.675499815 0 0.39
v 3.597514666 0 0.5013743356
v 3.501374336 0 0.5975146656
v 3.39 0 0.675499815
v 3.266775712 0 0.7329602442
v 3.135445579 0 0.7681500473
v 3 0 0.78
v 2.864554421 0 0.7681500473
v 2.733224288 0 0.7329602442
v 2.61 0 0.675499815
v 2.498625664 0 0.5975146656
v 2.402485334 0 0.5013743356
v 2.324500185 0 0.39
v 2.267039756 0 0.2667757118
v 2.231849953 0 0.1354455786
v 2.22 0 4.561227937e-17
v 2.231849953 0 -0.1354455786
v 2.267039756 0 -0.2667757118
v 2.324500185 0 -0.39
v 2.402485334 0 -0.5013743356
v 2.498625664 0 -0.5975146656
v 2.61 0 -0.675499815
v 2.733224288 0 -0.7329602442
v 2.864554421 0 -0.7681500473
v 3 0 -0.78
v 3.135445579 0 -0.7681500473
v 3.266775712 0 -0.7329602442
v 3.39 0 -0.675499815
v 3.501374336 0 -0.5975146656
v 3.597514666 0 -0.5013743356
v 3.675499815 0 -0.39
v 3.732960244 0 -0.2667757118
v 3.768150047 0 -0.1354455786
vt 0.02 0.02
vt 0.045 0.02
vt 0.07 0.02
vt 0.095 0.02
vt 0.12 0.02
vt 0.145 0.02
vt 0.17 0.02
vt 0.195 0.02
vt 0.22 0.02
vt 0.245 0.02
vt 0.27 0.02
vt 0.295 0.02
vt 0.32 0.02
vt 0.345 0.02
vt 0.37 0.02
vt 0.395 0.02
vt 0.42 0.02
vt 0.445 0.02
vt 0.47 0.02
vt 0.495 0.02
vt 0.52 0.02
vt 0.545 0.02
vt 0.57 0.02
vt 0.595 0.02
vt 0.62 0.02
vt 0.02 0.08128302811
vt 0.045 0.08128302811
vt 0.07 0.08128302811
vt 0.095 0.08128302811
vt 0.12 0.08128302811
vt 0.145 0.08128302811
vt 0.17 0.08128302811
vt 0.195 0.08128302811
vt 0.22 0.08128302811
vt 0.245 0.08128302811
vt 0.27 0.08128302811
vt 0.295 0.08128302811
vt 0.32 0.08128302811
vt 0.345 0.08128302811
vt 0.37 0.08128302811
vt 0.395 0.08128302811
vt 0.42 0.08128302811
vt 0.445 0.08128302811
vt 0.47 0.08128302811
vt 0.495 0.08128302811
vt 0.52 0.08128302811
vt 0.545 0.08128302811
vt 0.57 0.08128302811
vt 0.595 0.08128302811
vt 0.62 0.08128302811
vt 0.02 0.1390612211
vt 0.045 0.1390612211
vt 0.07 0.1390612211
vt 0.095 0.1390612211
vt 0.12 0.1390612211
vt 0.145 0.1390612211
vt 0.17 0.1390612211
vt 0.195 0.1390612211
vt 0.22 0.1390612211
vt 0.245 0.1390612211
vt 0.27 0.1390612211
vt 0.295 0.1390612211
vt 0.32 0.1390612211
vt 0.345 0.1390612211
vt 0.37 0.1390612211
vt 0.395 0.1390612211
vt 0.42 0.1390612211
vt 0.445 0.1390612211
vt 0.47 0.1390612211
vt 0.495 0.1390612211
vt 0.52 0.1390612211
vt 0.545 0.1390612211
vt 0.57 0.1390612211
vt 0.595 0.1390612211
vt 0.62 0.1390612211
vt 0.02 0.2979512518
vt 0.045 0.2979512518
vt 0.07 0.2979512518
vt 0.095 0.2979512518
vt 0.12 0.2979512518
vt 0.145 0.2979512518
vt 0.17 0.2979512518
vt 0.195 0.2979512518
vt 0.22 0.2979512518
vt 0.245 0.2979512518
vt 0.27 0.2979512518
vt 0.295 0.2979512518
vt 0.32 0.2979512518
vt 0.345 0.2979512518
vt 0.37 0.2979512518
vt 0.395 0.2979512518
vt 0.42 0.2979512518
vt 0.445 0.2979512518
vt 0.47 0.2979512518
vt 0.495 0.2979512518
vt 0.52 0.2979512518
vt 0.545 0.2979512518
vt 0.57 0.2979512518
vt 0.595 0.2979512518
vt 0.62 0.2979512518
vt 0.02 0.3436289241
vt 0.045 0.3436289241
vt 0.07 0.3436289241
vt 0.095 0.3436289241
vt 0.12 0.3436289241
vt 0.145 0.3436289241
vt 0.17 0.3436289241
vt 0.195 0.3436289241
vt 0.22 0.3436289241
vt 0.245 0.3436289241
vt 0.27 0.3436289241
vt 0.295 0.3436289241
vt 0.32 0.3436289241
vt 0.345 0.3436289241
vt 0.37 0.3436289241
vt 0.395 0.3436289241
vt 0.42 0.3436289241
vt 0.445 0.3436289241
vt 0.47 0.3436289241
vt 0.495 0.3436289241
vt 0.52 0.3436289241
vt 0.545 0.3436289241
vt 0.57 0.3436289241
vt 0.595 0.3436289241
vt 0.62 0.3436289241
vt 0.02 0.3725180206
vt 0.045 0.3725180206
vt 0.07 0.3725180206
vt 0.095 0.3725180206
vt 0.12 0.3725180206
vt 0.145 0.3725180206
vt 0.17 0.3725180206
vt 0.195 0.3725180206
vt 0.22 0.3725180206
vt 0.245 0.3725180206
vt 0.27 0.3725180206
vt 0.295 0.3725180206
vt 0.32 0.3725180206
vt 0.345 0.3725180206
vt 0.37 0.3725180206
vt 0.395 0.3725180206
vt 0.42 0.3725180206
vt 0.445 0.3725180206
vt 0.47 0.3725180206
vt 0.495 0.3725180206
vt 0.52 0.3725180206
vt 0.545 0.3725180206
vt 0.57 0.3725180206
vt 0.595 0.3725180206
vt 0.62 0.3725180206
vt 0.02 0.4181956928
vt 0.045 0.4181956928
vt 0.07 0.4181956928
vt 0.095 0.4181956928
vt 0.12 0.4181956928
vt 0.145 0.4181956928
vt 0.17 0.4181956928
vt 0.195 0.4181956928
vt 0.22 0.4181956928
vt 0.245 0.4181956928
vt 0.27 0.4181956928
vt 0.295 0.4181956928
vt 0.32 0.4181956928
vt 0.345 0.4181956928
vt 0.37 0.4181956928
vt 0.395 0.4181956928
vt 0.42 0.4181956928
vt 0.445 0.4181956928
vt 0.47 0.4181956928
vt 0.495 0.4181956928
vt 0.52 0.4181956928
vt 0.545 0.4181956928
vt 0.57 0.4181956928
vt 0.595 0.4181956928
vt 0.62 0.4181956928
vt 0.02 0.5698634494
vt 0.045 0.5698634494
vt 0.07 0.5698634494
vt 0.095 0.5698634494
vt 0.12 0.5698634494
vt 0.145 0.5698634494
vt 0.17 0.5698634494
vt 0.195 0.5698634494
vt 0.22 0.5698634494
vt 0.245 0.5698634494
vt 0.27 0.5698634494
vt 0.295 0.5698634494
vt 0.32 0.5698634494
vt 0.345 0.5698634494
vt 0.37 0.5698634494
vt 0.395 0.5698634494
vt 0.42 0.5698634494
vt 0.445 0.5698634494
vt 0.47 0.5698634494
vt 0.495 0.5698634494
vt 0.52 0.5698634494
vt 0.545 0.5698634494
vt 0.57 0.5698634494
vt 0.595 0.5698634494
vt 0.62 0.5698634494
vt 0.02 0.6348639165
vt 0.045 0.6348639165
vt 0.07 0.6348639165
vt 0.095 0.6348639165
vt 0.12 0.6348639165
vt 0.145 0.6348639165
vt 0.17 0.6348639165
vt 0.195 0.6348639165
vt 0.22 0.6348639165
vt 0.245 0.6348639165
vt 0.27 0.6348639165
vt 0.295 0.6348639165
vt 0.32 0.6348639165
vt 0.345 0.6348639165
vt 0.37 0.6348639165
vt 0.395 0.6348639165
vt 0.42 0.6348639165
vt 0.445 0.6348639165
vt 0.47 0.6348639165
vt 0.495 0.6348639165
vt 0.52 0.6348639165
vt 0.545 0.6348639165
vt 0.57 0.6348639165
vt 0.595 0.6348639165
vt 0.62 0.6348639165
vt 0.02 0.7612537137
vt 0.045 0.7612537137
vt 0.07 0.7612537137
vt 0.095 0.7612537137
vt 0.12 0.7612537137
vt 0.145 0.7612537137
vt 0.17 0.7612537137
vt 0.195 0.7612537137
vt 0.22 0.7612537137
vt 0.245 0.7612537137
vt 0.27 0.7612537137
vt 0.295 0.7612537137
vt 0.32 0.7612537137
vt 0.345 0.7612537137
vt 0.37 0.7612537137
vt 0.395 0.7612537137
vt 0.42 0.7612537137
vt 0.445 0.7612537137
vt 0.47 0.7612537137
vt 0.495 0.7612537137
vt 0.52 0.7612537137
vt 0.545 0.7612537137
vt 0.57 0.7612537137
vt 0.595 0.7612537137
vt 0.62 0.7612537137
vt 0.02 0.8045873585
vt 0.045 0.8045873585
vt 0.07 0.8045873585
vt 0.095 0.8045873585
vt 0.12 0.8045873585
vt 0.145 0.8045873585
vt 0.17 0.8045873585
vt 0.195 0.8045873585
vt 0.22 0.8045873585
vt 0.245 0.8045873585
vt 0.27 0.8045873585
vt 0.295 0.8045873585
vt 0.32 0.8045873585
vt 0.345 0.8045873585
vt 0.37 0.8045873585
vt 0.395 0.8045873585
vt 0.42 0.8045873585
vt 0.445 0.8045873585
vt 0.47 0.8045873585
vt 0.495 0.8045873585
vt 0.52 0.8045873585
vt 0.545 0.8045873585
vt 0.57 0.8045873585
vt 0.595 0.8045873585
vt 0.62 0.8045873585
vt 0.02 0.9237548815
vt 0.045 0.9237548815
vt 0.07 0.9237548815
vt 0.095 0.9237548815
vt 0.12 0.9237548815
vt 0.145 0.9237548815
vt 0.17 0.9237548815
vt 0.195 0.9237548815
vt 0.22 0.9237548815
vt 0.245 0.9237548815
vt 0.27 0.9237548815
vt 0.295 0.9237548815
vt 0.32 0.9237548815
vt 0.345 0.9237548815
vt 0.37 0.9237548815
vt 0.395 0.9237548815
vt 0.42 0.9237548815
vt 0.445 0.9237548815
vt 0.47 0.9237548815
vt 0.495 0.9237548815
vt 0.52 0.9237548815
vt 0.545 0.9237548815
vt 0.57 0.9237548815
vt 0.595 0.9237548815
vt 0.62 0.9237548815
vt 0.02 0.97
vt 0.045 0.97
vt 0.07 0.97
vt 0.095 0.97
vt 0.12 0.97
vt 0.145 0.97
vt 0.17 0.97
vt 0.195 0.97
vt 0.22 0.97
vt 0.245 0.97
vt 0.27 0.97
vt 0.295 0.97
vt 0.32 0.97
vt 0.345 0.97
vt 0.37 0.97
vt 0.395 0.97
vt 0.42 0.97
vt 0.445 0.97
vt 0.47 0.97
vt 0.495 0.97
vt 0.52 0.97
vt 0.545 0.97
vt 0.57 0.97
vt 0.595 0.97
vt 0.62 0.97
vt 0.96 0.25
vt 0.9548888739 0.2888228568
vt 0.9399038106 0.325
vt 0.9160660172 0.3560660172
vt 0.885 0.3799038106
vt 0.8488228568 0.3948888739
vt 0.81 0.4
vt 0.7711771432 0.3948888739
vt 0.735 0.3799038106
vt 0.7039339828 0.3560660172
vt 0.6800961894 0.325
vt 0.6651111261 0.2888228568
vt 0.66 0.25
vt 0.6651111261 0.2111771432
vt 0.6800961894 0.175
vt 0.7039339828 0.1439339828
vt 0.735 0.1200961894
vt 0.7711771432 0.1051111261
vt 0.81 0.1
vt 0.8488228568 0.1051111261
vt 0.885 0.1200961894
vt 0.9160660172 0.1439339828
vt 0.9399038106 0.175
vt 0.9548888739 0.2111771432
vt 0.96 0.73
vt 0.9548888739 0.7688228568
vt 0.9399038106 0.805
vt 0.9160660172 0.8360660172
vt 0.885 0.8599038106
vt 0.8488228568 0.8748888739
vt 0.81 0.88
vt 0.7711771432 0.8748888739
vt 0.735 0.8599038106
vt 0.7039339828 0.8360660172
vt 0.6800961894 0.805
vt 0.6651111261 0.7688228568
vt 0.66 0.73
vt 0.6651111261 0.6911771432
vt 0.6800961894 0.655
vt 0.7039339828 0.6239339828
vt 0.735 0.6000961894
vt 0.7711771432 0.5851111261
vt 0.81 0.58
vt 0.8488228568 0.5851111261
vt 0.885 0.6000961894
vt 0.9160660172 0.6239339828
vt 0.9399038106 0.655
vt 0.9548888739 0.6911771432
vt 0.03666666667 0.97
vt 0.03666666667 0.9237548815
vt 0.05333333333 0.97
vt 0.05333333333 0.9237548815
vt 0.08666666667 0.97
vt 0.08666666667 0.9237548815
vt 0.1033333333 0.97
vt 0.1033333333 0.9237548815
vt 0.1366666667 0.97
vt 0.1366666667 0.9237548815
vt 0.1533333333 0.97
vt 0.1533333333 0.9237548815
vt 0.1866666667 0.97
vt 0.1866666667 0.9237548815
vt 0.2033333333 0.97
vt 0.2033333333 0.9237548815
vt 0.2366666667 0.97
vt 0.2366666667 0.9237548815
vt 0.2533333333 0.97
vt 0.2533333333 0.9237548815
vt 0.2866666667 0.97
vt 0.2866666667 0.9237548815
vt 0.3033333333 0.97
vt 0.3033333333 0.9237548815
vt 0.3366666667 0.97
vt 0.3366666667 0.9237548815
vt 0.3533333333 0.97
vt 0.3533333333 0.9237548815
vt 0.3866666667 0.97
vt 0.3866666667 0.9237548815
vt 0.4033333333 0.97
vt 0.4033333333 0.9237548815
vt 0.4366666667 0.97
vt 0.4366666667 0.9237548815
vt 0.4533333333 0.97
vt 0.4533333333 0.9237548815
vt 0.4866666667 0.97
vt 0.4866666667 0.9237548815
vt 0.5033333333 0.97
vt 0.5033333333 0.9237548815
vt 0.5366666667 0.97
vt 0.5366666667 0.9237548815
vt 0.5533333333 0.97
vt 0.5533333333 0.9237548815
vt 0.5866666667 0.97
vt 0.5866666667 0.9237548815
vt 0.6033333333 0.97
vt 0.6033333333 0.9237548815
vt 0.03666666667 0.8045873585
vt 0.05333333333 0.8045873585
vt 0.08666666667 0.8045873585
vt 0.1033333333 0.8045873585
vt 0.1366666667 0.8045873585
vt 0.1533333333 0.8045873585
vt 0.1866666667 0.8045873585
vt 0.2033333333 0.8045873585
vt 0.2366666667 0.8045873585
vt 0.2533333333 0.8045873585
vt 0.2866666667 0.8045873585
vt 0.3033333333 0.8045873585
vt 0.3366666667 0.8045873585
vt 0.3533333333 0.8045873585
vt 0.3866666667 0.8045873585
vt 0.4033333333 0.8045873585
vt 0.4366666667 0.8045873585
vt 0.4533333333 0.8045873585
vt 0.4866666667 0.8045873585
vt 0.5033333333 0.8045873585
vt 0.5366666667 0.8045873585
vt 0.5533333333 0.8045873585
vt 0.5866666667 0.8045873585
vt 0.6033333333 0.8045873585
vt 0.03666666667 0.7612537137
vt 0.05333333333 0.7612537137
vt 0.08666666667 0.7612537137
vt 0.1033333333 0.7612537137
vt 0.1366666667 0.7612537137
vt 0.1533333333 0.7612537137
vt 0.1866666667 0.7612537137
vt 0.2033333333 0.7612537137
vt 0.2366666667 0.7612537137
vt 0.2533333333 0.7612537137
vt 0.2866666667 0.7612537137
vt 0.3033333333 0.7612537137
vt 0.3366666667 0.7612537137
vt 0.3533333333 0.7612537137
vt 0.3866666667 0.7612537137
vt 0.4033333333 0.7612537137
vt 0.4366666667 0.7612537137
vt 0.4533333333 0.7612537137
vt 0.4866666667 0.7612537137
vt 0.5033333333 0.7612537137
vt 0.5366666667 0.7612537137
vt 0.5533333333 0.7612537137
vt 0.5866666667 0.7612537137
vt 0.6033333333 0.7612537137
vt 0.03666666667 0.6348639165
vt 0.05333333333 0.6348639165
vt 0.08666666667 0.6348639165
vt 0.1033333333 0.6348639165
vt 0.1366666667 0.6348639165
vt 0.1533333333 0.6348639165
vt 0.1866666667 0.6348639165
vt 0.2033333333 0.6348639165
vt 0.2366666667 0.6348639165
vt 0.2533333333 0.6348639165
vt 0.2866666667 0.6348639165
vt 0.3033333333 0.6348639165
vt 0.3366666667 0.6348639165
vt 0.3533333333 0.6348639165
vt 0.3866666667 0.6348639165
vt 0.4033333333 0.6348639165
vt 0.4366666667 0.6348639165
vt 0.4533333333 0.6348639165
vt 0.4866666667 0.6348639165
vt 0.5033333333 0.6348639165
vt 0.5366666667 0.6348639165
vt 0.5533333333 0.6348639165
vt 0.5866666667 0.6348639165
vt 0.6033333333 0.6348639165
vt 0.03666666667 0.5698634494
vt 0.05333333333 0.5698634494
vt 0.08666666667 0.5698634494
vt 0.1033333333 0.5698634494
vt 0.1366666667 0.5698634494
vt 0.1533333333 0.5698634494
vt 0.1866666667 0.5698634494
vt 0.2033333333 0.5698634494
vt 0.2366666667 0.5698634494
vt 0.2533333333 0.5698634494
vt 0.2866666667 0.5698634494
vt 0.3033333333 0.5698634494
vt 0.3366666667 0.5698634494
vt 0.3533333333 0.5698634494
vt 0.3866666667 0.5698634494
vt 0.4033333333 0.5698634494
vt 0.4366666667 0.5698634494
vt 0.4533333333 0.5698634494
vt 0.4866666667 0.5698634494
vt 0.5033333333 0.5698634494
vt 0.5366666667 0.5698634494
vt 0.5533333333 0.5698634494
vt 0.5866666667 0.5698634494
vt 0.6033333333 0.5698634494
vt 0.03666666667 0.4181956928
vt 0.05333333333 0.4181956928
vt 0.08666666667 0.4181956928
vt 0.1033333333 0.4181956928
vt 0.1366666667 0.4181956928
vt 0.1533333333 0.4181956928
vt 0.1866666667 0.4181956928
vt 0.2033333333 0.4181956928
vt 0.2366666667 0.4181956928
vt 0.2533333333 0.4181956928
vt 0.2866666667 0.4181956928
vt 0.3033333333 0.4181956928
vt 0.3366666667 0.4181956928
vt 0.3533333333 0.4181956928
vt 0.3866666667 0.4181956928
vt 0.4033333333 0.4181956928
vt 0.4366666667 0.4181956928
vt 0.4533333333 0.4181956928
vt 0.4866666667 0.4181956928
vt 0.5033333333 0.4181956928
vt 0.5366666667 0.4181956928
vt 0.5533333333 0.4181956928
vt 0.5866666667 0.4181956928
vt 0.6033333333 0.4181956928
vt 0.03666666667 0.3725180206
vt 0.05333333333 0.3725180206
vt 0.08666666667 0.3725180206
vt 0.1033333333 0.3725180206
vt 0.1366666667 0.3725180206
vt 0.1533333333 0.3725180206
vt 0.1866666667 0.3725180206
vt 0.2033333333 0.3725180206
vt 0.2366666667 0.3725180206
vt 0.2533333333 0.3725180206
vt 0.2866666667 0.3725180206
vt 0.3033333333 0.3725180206
vt 0.3366666667 0.3725180206
vt 0.3533333333 0.3725180206
vt 0.3866666667 0.3725180206
vt 0.4033333333 0.3725180206
vt 0.4366666667 0.3725180206
vt 0.4533333333 0.3725180206
vt 0.4866666667 0.3725180206
vt 0.5033333333 0.3725180206
vt 0.5366666667 0.3725180206
vt 0.5533333333 0.3725180206
vt 0.5866666667 0.3725180206
vt 0.6033333333 0.3725180206
vt 0.03666666667 0.3436289241
vt 0.05333333333 0.3436289241
vt 0.08666666667 0.3436289241
vt 0.1033333333 0.3436289241
vt 0.1366666667 0.3436289241
vt 0.1533333333 0.3436289241
vt 0.1866666667 0.3436289241
vt 0.2033333333 0.3436289241
vt 0.2366666667 0.3436289241
vt 0.2533333333 0.3436289241
vt 0.2866666667 0.3436289241
vt 0.3033333333 0.3436289241
vt 0.3366666667 0.3436289241
vt 0.3533333333 0.3436289241
vt 0.3866666667 0.3436289241
vt 0.4033333333 0.3436289241
vt 0.4366666667 0.3436289241
vt 0.4533333333 0.3436289241
vt 0.4866666667 0.3436289241
vt 0.5033333333 0.3436289241
vt 0.5366666667 0.3436289241
vt 0.5533333333 0.3436289241
vt 0.5866666667 0.3436289241
vt 0.6033333333 0.3436289241
vt 0.03666666667 0.2979512518
vt 0.05333333333 0.2979512518
vt 0.08666666667 0.2979512518
vt 0.1033333333 0.2979512518
vt 0.1366666667 0.2979512518
vt 0.1533333333 0.2979512518
vt 0.1866666667 0.2979512518
vt 0.2033333333 0.2979512518
vt 0.2366666667 0.2979512518
vt 0.2533333333 0.2979512518
vt 0.2866666667 0.2979512518
vt 0.3033333333 0.2979512518
vt 0.3366666667 0.2979512518
vt 0.3533333333 0.2979512518
vt 0.3866666667 0.2979512518
vt 0.4033333333 0.2979512518
vt 0.4366666667 0.2979512518
vt 0.4533333333 0.2979512518
vt 0.4866666667 0.2979512518
vt 0.5033333333 0.2979512518
vt 0.5366666667 0.2979512518
vt 0.5533333333 0.2979512518
vt 0.5866666667 0.2979512518
vt 0.6033333333 0.2979512518
vt 0.03666666667 0.1390612211
vt 0.05333333333 0.1390612211
vt 0.08666666667 0.1390612211
vt 0.1033333333 0.1390612211
vt 0.1366666667 0.1390612211
vt 0.1533333333 0.1390612211
vt 0.1866666667 0.1390612211
vt 0.2033333333 0.1390612211
vt 0.2366666667 0.1390612211
vt 0.2533333333 0.1390612211
vt 0.2866666667 0.1390612211
vt 0.3033333333 0.1390612211
vt 0.3366666667 0.1390612211
vt 0.3533333333 0.1390612211
vt 0.3866666667 0.1390612211
vt 0.4033333333 0.1390612211
vt 0.4366666667 0.1390612211
vt 0.4533333333 0.1390612211
vt 0.4866666667 0.1390612211
vt 0.5033333333 0.1390612211
vt 0.5366666667 0.1390612211
vt 0.5533333333 0.1390612211
vt 0.5866666667 0.1390612211
vt 0.6033333333 0.1390612211
vt 0.03666666667 0.08128302811
vt 0.05333333333 0.08128302811
vt 0.08666666667 0.08128302811
vt 0.1033333333 0.08128302811
vt 0.1366666667 0.08128302811
vt 0.1533333333 0.08128302811
vt 0.1866666667 0.08128302811
vt 0.2033333333 0.08128302811
vt 0.2366666667 0.08128302811
vt 0.2533333333 0.08128302811
vt 0.2866666667 0.08128302811
vt 0.3033333333 0.08128302811
vt 0.3366666667 0.08128302811
vt 0.3533333333 0.08128302811
vt 0.3866666667 0.08128302811
vt 0.4033333333 0.08128302811
vt 0.4366666667 0.08128302811
vt 0.4533333333 0.08128302811
vt 0.4866666667 0.08128302811
vt 0.5033333333 0.08128302811
vt 0.5366666667 0.08128302811
vt 0.5533333333 0.08128302811
vt 0.5866666667 0.08128302811
vt 0.6033333333 0.08128302811
vt 0.03666666667 0.02
vt 0.05333333333 0.02
vt 0.08666666667 0.02
vt 0.1033333333 0.02
vt 0.1366666667 0.02
vt 0.1533333333 0.02
vt 0.1866666667 0.02
vt 0.2033333333 0.02
vt 0.2366666667 0.02
vt 0.2533333333 0.02
vt 0.2866666667 0.02
vt 0.3033333333 0.02
vt 0.3366666667 0.02
vt 0.3533333333 0.02
vt 0.3866666667 0.02
vt 0.4033333333 0.02
vt 0.4366666667 0.02
vt 0.4533333333 0.02
vt 0.4866666667 0.02
vt 0.5033333333 0.02
vt 0.5366666667 0.02
vt 0.5533333333 0.02
vt 0.5866666667 0.02
vt 0.6033333333 0.02
vt 0.9565925826 0.7558819045
vt 0.9498938528 0.7808819045
vt 0.9240119483 0.8257106781
vt 0.9057106781 0.8440119483
vt 0.8608819045 0.8698938528
vt 0.8358819045 0.8765925826
vt 0.7841180955 0.8765925826
vt 0.7591180955 0.8698938528
vt 0.7142893219 0.8440119483
vt 0.6959880517 0.8257106781
vt 0.6701061472 0.7808819045
vt 0.6634074174 0.7558819045
vt 0.6634074174 0.7041180955
vt 0.6701061472 0.6791180955
vt 0.6959880517 0.6342893219
vt 0.7142893219 0.6159880517
vt 0.7591180955 0.5901061472
vt 0.7841180955 0.5834074174
vt 0.8358819045 0.5834074174
vt 0.8608819045 0.5901061472
vt 0.9057106781 0.6159880517
vt 0.9240119483 0.6342893219
vt 0.9498938528 0.6791180955
vt 0.9565925826 0.7041180955
vt 0.9565925826 0.2758819045
vt 0.9498938528 0.3008819045
vt 0.9240119483 0.3457106781
vt 0.9057106781 0.3640119483
vt 0.8608819045 0.3898938528
vt 0.8358819045 0.3965925826
vt 0.7841180955 0.3965925826
vt 0.7591180955 0.3898938528
vt 0.7142893219 0.3640119483
vt 0.6959880517 0.3457106781
vt 0.6701061472 0.3008819045
vt 0.6634074174 0.2758819045
vt 0.6634074174 0.2241180955
vt 0.6701061472 0.1991180955
vt 0.6959880517 0.1542893219
vt 0.7142893219 0.1359880517
vt 0.7591180955 0.1101061472
vt 0.7841180955 0.1034074174
vt 0.8358819045 0.1034074174
vt 0.8608819045 0.1101061472
vt 0.9057106781 0.1359880517
vt 0.9240119483 0.1542893219
vt 0.9498938528 0.1991180955
vt 0.9565925826 0.2241180955
s 1
f 521/1167 522/1240 558/1241 557/1142
f 522/1240 523/1242 559/1243 558/1241
f 523/1242 524/1169 560/1144 559/1243
f 524/1169 525/1244 561/1245 560/1144
f 525/1244 526/1246 562/1247 561/1245
f 526/1246 527/1171 563/1146 562/1247
f 527/1171 528/1248 564/1249 563/1146
f 528/1248 529/1250 565/1251 564/1249
f 529/1250 530/1173 566/1148 565/1251
f 530/1173 531/1252 567/1253 566/1148
f 531/1252 532/1254 568/1255 567/1253
f 532/1254 533/1175 569/1150 568/1255
f 533/1175 534/1256 570/1257 569/1150
f 534/1256 535/1258 571/1259 570/1257
f 535/1258 536/1177 572/1152 571/1259
f 536/1177 537/1260 573/1261 572/1152
f 537/1260 538/1262 574/1263 573/1261
f 538/1262 539/1179 575/1154 574/1263
f 539/1179 540/1264 576/1265 575/1154
f 540/1264 541/1266 577/1267 576/1265
f 541/1266 542/1181 578/1156 577/1267
f 542/1181 543/1268 579/1269 578/1156
f 543/1268 544/1270 580/1271 579/1269
f 544/1270 545/1183 581/1158 580/1271
f 545/1183 546/1272 582/1273 581/1158
f 546/1272 547/1274 583/1275 582/1273
f 547/1274 548/1185 584/1160 583/1275
f 548/1185 549/1276 585/1277 584/1160
f 549/1276 550/1278 586/1279 585/1277
f 550/1278 551/1187 587/1162 586/1279
f 551/1187 552/1280 588/1281 587/1162
f 552/1280 553/1282 589/1283 588/1281
f 553/1282 554/1189 590/1164 589/1283
f 554/1189 555/1284 591/1285 590/1164
f 555/1284 556/1286 592/1287 591/1285
f 556/1286 521/1191 557/1166 592/1287
f 557/1142 558/1241 594/1288 593/1117
f 558/1241 559/1243 595/1289 594/1288
f 559/1243 560/1144 596/1119 595/1289
f 560/1144 561/1245 597/1290 596/1119
f 561/1245 562/1247 598/1291 597/1290
f 562/1247 563/1146 599/1121 598/1291
f 563/1146 564/1249 600/1292 599/1121
f 564/1249 565/1251 601/1293 600/1292
f 565/1251 566/1148 602/1123 601/1293
f 566/1148 567/1253 603/1294 602/1123
f 567/1253 568/1255 604/1295 603/1294
f 568/1255 569/1150 605/1125 604/1295
f 569/1150 570/1257 606/1296 605/1125
f 570/1257 571/1259 607/1297 606/1296
f 571/1259 572/1152 608/1127 607/1297
f 572/1152 573/1261 609/1298 608/1127
f 573/1261 574/1263 610/1299 609/1298
f 574/1263 575/1154 611/1129 610/1299
f 575/1154 576/1265 612/1300 611/1129
f 576/1265 577/1267 613/1301 612/1300
f 577/1267 578/1156 614/1131 613/1301
f 578/1156 579/1269 615/1302 614/1131
f 579/1269 580/1271 616/1303 615/1302
f 580/1271 581/1158 617/1133 616/1303
f 581/1158 582/1273 618/1304 617/1133
f 582/1273 583/1275 619/1305 618/1304
f 583/1275 584/1160 620/1135 619/1305
f 584/1160 585/1277 621/1306 620/1135
f 585/1277 586/1279 622/1307 621/1306
f 586/1279 587/1162 623/1137 622/1307
f 587/1162 588/1281 624/1308 623/1137
f 588/1281 589/1283 625/1309 624/1308
f 589/1283 590/1164 626/1139 625/1309
f 590/1164 591/1285 627/1310 626/1139
f 591/1285 592/1287 628/1311 627/1310
f 592/1287 557/1166 593/1141 628/1311
f 593/1117 594/1288 630/1312 629/1092
f 594/1288 595/1289 631/1313 630/1312
f 595/1289 596/1119 632/1094 631/1313
f 596/1119 597/1290 633/1314 632/1094
f 597/1290 598/1291 634/1315 633/1314
f 598/1291 599/1121 635/1096 634/1315
f 599/1121 600/1292 636/1316 635/1096
f 600/1292 601/1293 637/1317 636/1316
f 601/1293 602/1123 638/1098 637/1317
f 602/1123 603/1294 639/1318 638/1098
f 603/1294 604/1295 640/1319 639/1318
f 604/1295 605/1125 641/1100 640/1319
f 605/1125 606/1296 642/1320 641/1100
f 606/1296 607/1297 643/1321 642/1320
f 607/1297 608/1127 644/1102 643/1321
f 608/1127 609/1298 645/1322 644/1102
f 609/1298 610/1299 646/1323 645/1322
f 610/1299 611/1129 647/1104 646/1323
f 611/1129 612/1300 648/1324 647/1104
f 612/1300 613/1301 649/1325 648/1324
f 613/1301 614/1131 650/1106 649/1325
f 614/1131 615/1302 651/1326 650/1106
f 615/1302 616/1303 652/1327 651/1326
f 616/1303 617/1133 653/1108 652/1327
f 617/1133 618/1304 654/1328 653/1108
f 618/1304 619/1305 655/1329 654/1328
f 619/1305 620/1135 656/1110 655/1329
f 620/1135 621/1306 657/1330 656/1110
f 621/1306 622/1307 658/1331 657/1330
f 622/1307 623/1137 659/1112 658/1331
f 623/1137 624/1308 660/1332 659/1112
f 624/1308 625/1309 661/1333 660/1332
f 625/1309 626/1139 662/1114 661/1333
f 626/1139 627/1310 663/1334 662/1114
f 627/1310 628/1311 664/1335 663/1334
f 628/1311 593/1141 629/1116 664/1335
f 629/1092 630/1312 666/1336 665/1067
f 630/1312 631/1313 667/1337 666/1336
f 631/1313 632/1094 668/1069 667/1337
f 632/1094 633/1314 669/1338 668/1069
f 633/1314 634/1315 670/1339 669/1338
f 634/1315 635/1096 671/1071 670/1339
f 635/1096 636/1316 672/1340 671/1071
f 636/1316 637/1317 673/1341 672/1340
f 637/1317 638/1098 674/1073 673/1341
f 638/1098 639/1318 675/1342 674/1073
f 639/1318 640/1319 676/1343 675/1342
f 640/1319 641/1100 677/1075 676/1343
f 641/1100 642/1320 678/1344 677/1075
f 642/1320 643/1321 679/1345 678/1344
f 643/1321 644/1102 680/1077 679/1345
f 644/1102 645/1322 681/1346 680/1077
f 645/1322 646/1323 682/1347 681/1346
f 646/1323 647/1104 683/1079 682/1347
f 647/1104 648/1324 684/1348 683/1079
f 648/1324 649/1325 685/1349 684/1348
f 649/1325 650/1106 686/1081 685/1349
f 650/1106 651/1326 687/1350 686/1081
f 651/1326 652/1327 688/1351 687/1350
f 652/1327 653/1108 689/1083 688/1351
f 653/1108 654/1328 690/1352 689/1083
f 654/1328 655/1329 691/1353 690/1352
f 655/1329 656/1110 692/1085 691/1353
f 656/1110 657/1330 693/1354 692/1085
f 657/1330 658/1331 694/1355 693/1354
f 658/1331 659/1112 695/1087 694/1355
f 659/1112 660/1332 696/1356 695/1087
f 660/1332 661/1333 697/1357 696/1356
f 661/1333 662/1114 698/1089 697/1357
f 662/1114 663/1334 699/1358 698/1089
f 663/1334 664/1335 700/1359 699/1358
f 664/1335 629/1116 665/1091 700/1359
f 665/1067 666/1336 702/1360 701/1042
f 666/1336 667/1337 703/1361 702/1360
f 667/1337 668/1069 704/1044 703/1361
f 668/1069 669/1338 705/1362 704/1044
f 669/1338 670/1339 706/1363 705/1362
f 670/1339 671/1071 707/1046 706/1363
f 671/1071 672/1340 708/1364 707/1046
f 672/1340 673/1341 709/1365 708/1364
f 673/1341 674/1073 710/1048 709/1365
f 674/1073 675/1342 711/1366 710/1048
f 675/1342 676/1343 712/1367 711/1366
f 676/1343 677/1075 713/1050 712/1367
f 677/1075 678/1344 714/1368 713/1050
f 678/1344 679/1345 715/1369 714/1368
f 679/1345 680/1077 716/1052 715/1369
f 680/1077 681/1346 717/1370 716/1052
f 681/1346 682/1347 718/1371 717/1370
f 682/1347 683/1079 719/1054 718/1371
f 683/1079 684/1348 720/1372 719/1054
f 684/1348 685/1349 721/1373 720/1372
f 685/1349 686/1081 722/1056 721/1373
f 686/1081 687/1350 723/1374 722/1056
f 687/1350 688/1351 724/1375 723/1374
f 688/1351 689/1083 725/1058 724/1375
f 689/1083 690/1352 726/1376 725/1058
f 690/1352 691/1353 727/1377 726/1376
f 691/1353 692/1085 728/1060 727/1377
f 692/1085 693/1354 729/1378 728/1060
f 693/1354 694/1355 730/1379 729/1378
f 694/1355 695/1087 731/1062 730/1379
f 695/1087 696/1356 732/1380 731/1062
f 696/1356 697/1357 733/1381 732/1380
f 697/1357 698/1089 734/1064 733/1381
f 698/1089 699/1358 735/1382 734/1064
f 699/1358 700/1359 736/1383 735/1382
f 700/1359 665/1091 701/1066 736/1383
f 701/1042 702/1360 738/1384 737/1017
f 702/1360 703/1361 739/1385 738/1384
f 703/1361 704/1044 740/1019 739/1385
f 704/1044 705/1362 741/1386 740/1019
f 705/1362 706/1363 742/1387 741/1386
f 706/1363 707/1046 743/1021 742/1387
f 707/1046 708/1364 744/1388 743/1021
f 708/1364 709/1365 745/1389 744/1388
f 709/1365 710/1048 746/1023 745/1389
f 710/1048 711/1366 747/1390 746/1023
f 711/1366 712/1367 748/1391 747/1390
f 712/1367 713/1050 749/1025 748/1391
f 713/1050 714/1368 750/1392 749/1025
f 714/1368 715/1369 751/1393 750/1392
f 715/1369 716/1052 752/1027 751/1393
f 716/1052 717/1370 753/1394 752/1027
f 717/1370 718/1371 754/1395 753/1394
f 718/1371 719/1054 755/1029 754/1395
f 719/1054 720/1372 756/1396 755/1029
f 720/1372 721/1373 757/1397 756/1396
f 721/1373 722/1056 758/1031 757/1397
f 722/1056 723/1374 759/1398 758/1031
f 723/1374 724/1375 760/1399 759/1398
f 724/1375 725/1058 761/1033 760/1399
f 725/1058 726/1376 762/1400 761/1033
f 726/1376 727/1377 763/1401 762/1400
f 727/1377 728/1060 764/1035 763/1401
f 728/1060 729/1378 765/1402 764/1035
f 729/1378 730/1379 766/1403 765/1402
f 730/1379 731/1062 767/1037 766/1403
f 731/1062 732/1380 768/1404 767/1037
f 732/1380 733/1381 769/1405 768/1404
f 733/1381 734/1064 770/1039 769/1405
f 734/1064 735/1382 771/1406 770/1039
f 735/1382 736/1383 772/1407 771/1406
f 736/1383 701/1066 737/1041 772/1407
f 737/1017 738/1384 774/1408 773/992
f 738/1384 739/1385 775/1409 774/1408
f 739/1385 740/1019 776/994 775/1409
f 740/1019 741/1386 777/1410 776/994
f 741/1386 742/1387 778/1411 777/1410
f 742/1387 743/1021 779/996 778/1411
f 743/1021 744/1388 780/1412 779/996
f 744/1388 745/1389 781/1413 780/1412
f 745/1389 746/1023 782/998 781/1413
f 746/1023 747/1390 783/1414 782/998
f 747/1390 748/1391 784/1415 783/1414
f 748/1391 749/1025 785/1000 784/1415
f 749/1025 750/1392 786/1416 785/1000
f 750/1392 751/1393 787/1417 786/1416
f 751/1393 752/1027 788/1002 787/1417
f 752/1027 753/1394 789/1418 788/1002
f 753/1394 754/1395 790/1419 789/1418
f 754/1395 755/1029 791/1004 790/1419
f 755/1029 756/1396 792/1420 791/1004
f 756/1396 757/1397 793/1421 792/1420
f 757/1397 758/1031 794/1006 793/1421
f 758/1031 759/1398 795/1422 794/1006
f 759/1398 760/1399 796/1423 795/1422
f 760/1399 761/1033 797/1008 796/1423
f 761/1033 762/1400 798/1424 797/1008
f 762/1400 763/1401 799/1425 798/1424
f 763/1401 764/1035 800/1010 799/1425
f 764/1035 765/1402 801/1426 800/1010
f 765/1402 766/1403 802/1427 801/1426
f 766/1403 767/1037 803/1012 802/1427
f 767/1037 768/1404 804/1428 803/1012
f 768/1404 769/1405 805/1429 804/1428
f 769/1405 770/1039 806/1014 805/1429
f 770/1039 771/1406 807/1430 806/1014
f 771/1406 772/1407 808/1431 807/1430
f 772/1407 737/1041 773/1016 808/1431
f 773/992 774/1408 810/1432 809/967
f 774/1408 775/1409 811/1433 810/1432
f 775/1409 776/994 812/969 811/1433
f 776/994 777/1410 813/1434 812/969
f 777/1410 778/1411 814/1435 813/1434
f 778/1411 779/996 815/971 814/1435
f 779/996 780/1412 816/1436 815/971
f 780/1412 781/1413 817/1437 816/1436
f 781/1413 782/998 818/973 817/1437
f 782/998 783/1414 819/1438 818/973
f 783/1414 784/1415 820/1439 819/1438
f 784/1415 785/1000 821/975 820/1439
f 785/1000 786/1416 822/1440 821/975
f 786/1416 787/1417 823/1441 822/1440
f 787/1417 788/1002 824/977 823/1441
f 788/1002 789/1418 825/1442 824/977
f 789/1418 790/1419 826/1443 825/1442
f 790/1419 791/1004 827/979 826/1443
f 791/1004 792/1420 828/1444 827/979
f 792/1420 793/1421 829/1445 828/1444
f 793/1421 794/1006 830/981 829/1445
f 794/1006 795/1422 831/1446 830/981
f 795/1422 796/1423 832/1447 831/1446
f 796/1423 797/1008 833/983 832/1447
f 797/1008 798/1424 834/1448 833/983
f 798/1424 799/1425 835/1449 834/1448
f 799/1425 800/1010 836/985 835/1449
f 800/1010 801/1426 837/1450 836/985
f 801/1426 802/1427 838/1451 837/1450
f 802/1427 803/1012 839/987 838/1451
f 803/1012 804/1428 840/1452 839/987
f 804/1428 805/1429 841/1453 840/1452
f 805/1429 806/1014 842/989 841/1453
f 806/1014 807/1430 843/1454 842/989
f 807/1430 808/1431 844/1455 843/1454
f 808/1431 773/1016 809/991 844/1455
f 809/967 810/1432 846/1456 845/942
f 810/1432 811/1433 847/1457 846/1456
f 811/1433 812/969 848/944 847/1457
f 812/969 813/1434 849/1458 848/944
f 813/1434 814/1435 850/1459 849/1458
f 814/1435 815/971 851/946 850/1459
f 815/971 816/1436 852/1460 851/946
f 816/1436 817/1437 853/1461 852/1460
f 817/1437 818/973 854/948 853/1461
f 818/973 819/1438 855/1462 854/948
f 819/1438 820/1439 856/1463 855/1462
f 820/1439 821/975 857/950 856/1463
f 821/975 822/1440 858/1464 857/950
f 822/1440 823/1441 859/1465 858/1464
f 823/1441 824/977 860/952 859/1465
f 824/977 825/1442 861/1466 860/952
f 825/1442 826/1443 862/1467 861/1466
f 826/1443 827/979 863/954 862/1467
f 827/979 828/1444 864/1468 863/954
f 828/1444 829/1445 865/1469 864/1468
f 829/1445 830/981 866/956 865/1469
f 830/981 831/1446 867/1470 866/956
f 831/1446 832/1447 868/1471 867/1470
f 832/1447 833/983 869/958 868/1471
f 833/983 834/1448 870/1472 869/958
f 834/1448 835/1449 871/1473 870/1472
f 835/1449 836/985 872/960 871/1473
f 836/985 837/1450 873/1474 872/960
f 837/1450 838/1451 874/1475 873/1474
f 838/1451 839/987 875/962 874/1475
f 839/987 840/1452 876/1476 875/962
f 840/1452 841/1453 877/1477 876/1476
f 841/1453 842/989 878/964 877/1477
f 842/989 843/1454 879/1478 878/964
f 843/1454 844/1455 880/1479 879/1478
f 844/1455 809/991 845/966 880/1479
f 845/942 846/1456 882/1480 881/917
f 846/1456 847/1457 883/1481 882/1480
f 847/1457 848/944 884/919 883/1481
f 848/944 849/1458 885/1482 884/919
f 849/1458 850/1459 886/1483 885/1482
f 850/1459 851/946 887/921 886/1483
f 851/946 852/1460 888/1484 887/921
f 852/1460 853/1461 889/1485 888/1484
f 853/1461 854/948 890/923 889/1485
f 854/948 855/1462 891/1486 890/923
f 855/1462 856/1463 892/1487 891/1486
f 856/1463 857/950 893/925 892/1487
f 857/950 858/1464 894/1488 893/925
f 858/1464 859/1465 895/1489 894/1488
f 859/1465 860/952 896/927 895/1489
f 860/952 861/1466 897/1490 896/927
f 861/1466 862/1467 898/1491 897/1490
f 862/1467 863/954 899/929 898/1491
f 863/954 864/1468 900/1492 899/929
f 864/1468 865/1469 901/1493 900/1492
f 865/1469 866/956 902/931 901/1493
f 866/956 867/1470 903/1494 902/931
f 867/1470 868/1471 904/1495 903/1494
f 868/1471 869/958 905/933 904/1495
f 869/958 870/1472 906/1496 905/933
f 870/1472 871/1473 907/1497 906/1496
f 871/1473 872/960 908/935 907/1497
f 872/960 873/1474 909/1498 908/935
f 873/1474 874/1475 910/1499 909/1498
f 874/1475 875/962 911/937 910/1499
f 875/962 876/1476 912/1500 911/937
f 876/1476 877/1477 913/1501 912/1500
f 877/1477 878/964 914/939 913/1501
f 878/964 879/1478 915/1502 914/939
f 879/1478 880/1479 916/1503 915/1502
f 880/1479 845/966 881/941 916/1503
f 881/917 882/1480 918/1504 917/892
f 882/1480 883/1481 919/1505 918/1504
f 883/1481 884/919 920/894 919/1505
f 884/919 885/1482 921/1506 920/894
f 885/1482 886/1483 922/1507 921/1506
f 886/1483 887/921 923/896 922/1507
f 887/921 888/1484 924/1508 923/896
f 888/1484 889/1485 925/1509 924/1508
f 889/1485 890/923 926/898 925/1509
f 890/923 891/1486 927/1510 926/898
f 891/1486 892/1487 928/1511 927/1510
f 892/1487 893/925 929/900 928/1511
f 893/925 894/1488 930/1512 929/900
f 894/1488 895/1489 931/1513 930/1512
f 895/1489 896/927 932/902 931/1513
f 896/927 897/1490 933/1514 932/902
f 897/1490 898/1491 934/1515 933/1514
f 898/1491 899/929 935/904 934/1515
f 899/929 900/1492 936/1516 935/904
f 900/1492 901/1493 937/1517 936/1516
f 901/1493 902/931 938/906 937/1517
f 902/931 903/1494 939/1518 938/906
f 903/1494 904/1495 940/1519 939/1518
f 904/1495 905/933 941/908 940/1519
f 905/933 906/1496 942/1520 941/908
f 906/1496 907/1497 943/1521 942/1520
f 907/1497 908/935 944/910 943/1521
f 908/935 909/1498 945/1522 944/910
f 909/1498 910/1499 946/1523 945/1522
f 910/1499 911/937 947/912 946/1523
f 911/937 912/1500 948/1524 947/912
f 912/1500 913/1501 949/1525 948/1524
f 913/1501 914/939 950/914 949/1525
f 914/939 915/1502 951/1526 950/914
f 915/1502 916/1503 952/1527 951/1526
f 916/1503 881/941 917/916 952/1527
f 917/892 918/1504 954/1528 953/867
f 918/1504 919/1505 955/1529 954/1528
f 919/1505 920/894 956/869 955/1529
f 920/894 921/1506 957/1530 956/869
f 921/1506 922/1507 958/1531 957/1530
f 922/1507 923/896 959/871 958/1531
f 923/896 924/1508 960/1532 959/871
f 924/1508 925/1509 961/1533 960/1532
f 925/1509 926/898 962/873 961/1533
f 926/898 927/1510 963/1534 962/873
f 927/1510 928/1511 964/1535 963/1534
f 928/1511 929/900 965/875 964/1535
f 929/900 930/1512 966/1536 965/875
f 930/1512 931/1513 967/1537 966/1536
f 931/1513 932/902 968/877 967/1537
f 932/902 933/1514 969/1538 968/877
f 933/1514 934/1515 970/1539 969/1538
f 934/1515 935/904 971/879 970/1539
f 935/904 936/1516 972/1540 971/879
f 936/1516 937/1517 973/1541 972/1540
f 937/1517 938/906 974/881 973/1541
f 938/906 939/1518 975/1542 974/881
f 939/1518 940/1519 976/1543 975/1542
f 940/1519 941/908 977/883 976/1543
f 941/908 942/1520 978/1544 977/883
f 942/1520 943/1521 979/1545 978/1544
f 943/1521 944/910 980/885 979/1545
f 944/910 945/1522 981/1546 980/885
f 945/1522 946/1523 982/1547 981/1546
f 946/1523 947/912 983/887 982/1547
f 947/912 948/1524 984/1548 983/887
f 948/1524 949/1525 985/1549 984/1548
f 949/1525 950/914 986/889 985/1549
f 950/914 951/1526 987/1550 986/889
f 951/1526 952/1527 988/1551 987/1550
f 952/1527 917/916 953/891 988/1551
s off
f 556/1575 555/1574 554/1238 553/1573 552/1572 551/1236 550/1571 549/1570 548/1234 547/1569 546/1568 545/1232 544/1567 543/1566 542/1230 541/1565 540/1564 539/1228 538/1563 537/1562 536/1226 535/1561 534/1560 533/1224 532/1559 531/1558 530/1222 529/1557 528/1556 527/1220 526/1555 525/1554 524/1218 523/1553 522/1552 521/1216
s off
f 953/1192 954/1576 955/1577 956/1194 957/1578 958/1579 959/1196 960/1580 961/1581 962/1198 963/1582 964/1583 965/1200 966/1584 967/1585 968/1202 969/1586 970/1587 971/1204 972/1588 973/1589 974/1206 975/1590 976/1591 977/1208 978/1592 979/1593 980/1210 981/1594 982/1595 983/1212 984/1596 985/1597 986/1214 987/1598 988/1599
